<ttFont>
          <CharString index="0">
            -30 callgsubr
            389 170 vlineto
            142 22 -108 -101 12 hvcurveto
            48 hlineto
            -11 125 -2 49 56 24 -1 24 29 vvcurveto
            37 1 46 6 69 255 callsubr
            -12 -16 -135 -142 hhcurveto
            -170 381 hlineto
            76 callgsubr
            150 hlineto
            168 65 -76 -225 30 callsubr
            131 callgsubr
            -121 -6 -168 0 -119 -118 -260 0 -195 hflex1
            return
          </CharString>
          <CharString index="1">
            -107 callgsubr
            57 4 99 2 106 -101 callsubr
            return
          </CharString>
          <CharString index="2">
            rmoveto
            -45 -4 -75 -2 -70 239 callsubr
            -45 callsubr
            47 -41 -149 vvcurveto
            -476 vlineto
            -280 -79 -209 -293 126 callsubr
            vhcurveto
            514 209 callsubr
            20 -46 callsubr
            41 vlineto
            -63 -4 -42 callsubr
            99 callgsubr
            141 callgsubr
            -479 vlineto
            -266 31 -113 121 -109 vhcurveto
            -67 84 116 -23 123 hhcurveto
            160 131 68 102 64 hvcurveto
            61 101 22 131 182 vvcurveto
            453 vlineto
            149 27 41 -46 callsubr
            endchar
          </CharString>
          <CharString index="3">
            -21 -139 -84 callsubr
            return
          </CharString>
          <CharString index="4">
            -89 callsubr
            58 4 98 2 106 78 86 -2 56 -16 callgsubr
            -43 2 -58 25 -41 104 rrcurveto
            -360 418 rmoveto
            -464 hlineto
            235 611 rlineto
            endchar
          </CharString>
          <CharString index="5">
            vlineto
            -106 callsubr
            return
          </CharString>
          <CharString index="6">
            -69 callsubr
            -97 callgsubr
            return
          </CharString>
          <CharString index="7">
            rmoveto
            -368 -262 -266 -398 -407 251 -232 377 369 262 267 397 407 -252 232 -377 hvcurveto
            -8 -37 rmoveto
            240 192 -236 -374 -363 -164 -256 -254 -239 -193 236 374 363 164 256 254 hvcurveto
            endchar
          </CharString>
          <CharString index="8">
            rmoveto
            -260 -205 -163 -394 -393 205 -162 260 260 205 162 393 394 -205 163 -260 hvcurveto
            -41 vmoveto
            156 110 -149 -367 -366 -110 -148 -156 -155 -111 279 callgsubr
            367 111 149 155 hvcurveto
            endchar
          </CharString>
          <CharString index="9">
            rmoveto
            -72 -86 2 4 -78 hvcurveto
            -41 vlineto
            119 -3 56 -30 -93 vvcurveto
            -42 -11 -54 -22 -69 vhcurveto
            -253 -792 -294 911 rlineto
            -14 43 -7 32 24 vvcurveto
            63 49 6 91 4 204 callsubr
            -70 -80 2 -49 hflex1
            -41 vlineto
            37 -2 49 -23 35 -106 54 -161 rcurveline
            -248 -793 -300 913 rlineto
            -14 43 -8 33 25 vvcurveto
            47 29 19 71 5 328 callgsubr
            -82 -2 -90 -78 -86 2 -55 hflex1
            -41 vlineto
            43 -2 61 -23 37 -106 434 -1288 rcurveline
            6 4 0 7 hhcurveto
            16 hlineto
            326 1055 356 -1055 rlineto
            232 callgsubr
            387 1241 39 125 69 41 54 205 callgsubr
            -70 hhcurveto
            endchar
          </CharString>
          <CharString index="10">
            rmoveto
            hintmask 1000101111000000
            -20 -59 -74 -8 -80 hhcurveto
            hintmask 1000010111000000
            -41 -43 2 4 -43 hvcurveto
            hintmask 1000101111000000
            -62 callsubr
            hintmask 1000001111000000
            805 vlineto
            hintmask 1000101111000000
            -20 -60 -73 -8 -80 hhcurveto
            hintmask 1000010111000000
            -41 -43 2 4 -43 hvcurveto
            hintmask 1000101111000000
            -71 callgsubr
            hintmask 0100001111000000
            -242 vlineto
            hintmask 0010001111000000
            131 callsubr
            hintmask 0001001111000000
            41 43 -2 -4 43 hvcurveto
            hintmask 0010001111000000
            68 callsubr
          </CharString>
          <CharString index="11">
            -41 vlineto
            295 callsubr
            -1016 -83 callsubr
            return
          </CharString>
          <CharString index="12">
            -90 callgsubr
            -69 callsubr
            return
          </CharString>
          <CharString index="13">
            rmoveto
            -356 -254 -266 -398 -407 243 -232 365 hvcurveto
            hintmask 10101010
            155 91 62 71 86 hvcurveto
            13 16 13 7 12 hhcurveto
            hintmask 01101010
            28 16 -41 -83 7 20 callgsubr
            -6 96 -2 127 228 vvcurveto
            -47 hlineto
            -21 -146 -20 -65 -54 -72 rrcurveto
            hintmask 10101100
            -105 -77 -119 -51 -117 hhcurveto
            -229 -183 211 395 383 156 232 242 116 111 -53 -103 78 hvcurveto
            51 -67 23 -45 28 -150 rrcurveto
            47 hlineto
            hintmask 10011100
            217 2 121 7 92 vhcurveto
            -48 hlineto
            -83 -7 -16 -41 -29 hhcurveto
            -11 -13 7 13 -16 hvcurveto
            hintmask 10101100
            69 -82 -86 64 -147 hhcurveto
            endchar
          </CharString>
          <CharString index="14">
            rmoveto
            -64 -51 -47 -62 -72 47 -38 60 34 31 14 18 21 hvcurveto
            2 -65 -66 -45 -63 -19 14 -37 rcurveline
            131 48 37 63 98 vvcurveto
            80 -53 64 -80 vhcurveto
            endchar
          </CharString>
          <CharString index="15">
            rmoveto
            -86 -55 -70 -90 -188 -143 14 -27 rcurveline
            211 107 113 22 88 53 rrcurveto
            38 25 16 29 27 vvcurveto
            13 -4 13 -7 12 vhcurveto
            21 -14 -22 13 -27 hhcurveto
            -19 -21 -6 -14 -22 hvcurveto
            return
          </CharString>
          <CharString index="16">
            150 27 20 139 6 vhcurveto
            41 vlineto
            56 callgsubr
            return
          </CharString>
          <CharString index="17">
            292 callgsubr
            -17 hhcurveto
            -25 -28 -13 -33 -25 hvcurveto
            -61 -80 -35 -110 -127 -199 22 -18 rcurveline
            162 172 99 59 63 85 callsubr
            return
          </CharString>
          <CharString index="18">
            -41 vlineto
            41 4 43 2 69 72 86 -2 78 -16 callgsubr
            -117 3 -61 31 89 vvcurveto
            42 13 55 28 71 vhcurveto
            84 217 rlineto
            494 hlineto
            126 -336 rlineto
            16 -41 8 -31 -24 vvcurveto
            -57 -46 -15 -99 198 callsubr
            return
          </CharString>
          <CharString index="19">
            vlineto
            -150 -27 -41 15 callgsubr
            69 70 90 112 callsubr
            -159 6 -27 41 150 vvcurveto
            return
          </CharString>
          <CharString index="20">
            -85 callsubr
            20 139 6 vhcurveto
            return
          </CharString>
          <CharString index="21">
            rmoveto
            -45 -4 -76 -2 -69 239 callsubr
            160 -6 26 300 callgsubr
            -876 vlineto
            -723 1114 rlineto
            -45 -4 -55 -79 callsubr
            return
          </CharString>
          <CharString index="22">
            -65 callsubr
            15 callsubr
            return
          </CharString>
          <CharString index="23">
            -6 -58 callgsubr
            return
          </CharString>
          <CharString index="24">
            vlineto
            -107 callgsubr
            201 6 270 0 123 137 193 0 139 hflex1
            return
          </CharString>
          <CharString index="25">
            rmoveto
            41 vlineto
            -144 -6 -163 0 -150 -143 -201 0 -145 hflex1
            10 -88 4 -90 -43 vvcurveto
            -66 -2 -59 -4 -43 vhcurveto
            47 hlineto
            256 22 72 86 139 hhcurveto
            430 hlineto
            -723 -1157 rlineto
            -41 vlineto
            150 6 172 0 156 143 201 0 145 hflex1
            -10 88 -4 90 43 vvcurveto
            66 2 159 callgsubr
            -256 -23 -71 -86 -140 hhcurveto
            -450 hlineto
            endchar
          </CharString>
          <CharString index="26">
            rmoveto
            -72 -86 2 4 -78 hvcurveto
            -41 vlineto
            114 -3 67 -25 -81 vvcurveto
            -42 -18 -57 -38 -77 vhcurveto
            -261 -520 -341 653 rlineto
            -15 29 -6 23 19 vvcurveto
            61 66 18 78 vhcurveto
            43 vlineto
            -88 -6 -109 0 -90 -70 -57 2 -53 159 callsubr
            34 -14 -101 56 hvcurveto
            415 -766 rlineto
            -309 320 callsubr
            58 183 callsubr
            82 callsubr
            191 callsubr
            373 vlineto
            321 637 62 121 49 49 53 205 callgsubr
            -69 hhcurveto
            endchar
          </CharString>
          <CharString index="27">
            14 -22 -21 6 -19 hhcurveto
            -27 -22 -13 -21 -14 hvcurveto
            -7 -12 -4 -13 -13 vvcurveto
            -27 16 -29 38 -25 vhcurveto
            return
          </CharString>
          <CharString index="28">
            -2 -60 26 callgsubr
            -995 -88 callsubr
            1081 vlineto
            return
          </CharString>
          <CharString index="29">
            -64 callgsubr
            6 callsubr
            return
          </CharString>
          <CharString index="30">
            hvcurveto
            -33 -29 -25 -33 -19 -37 rrcurveto
            74 -68 -95 38 -125 hhcurveto
            -139 -113 -54 -80 -72 hvcurveto
            -63 -73 -37 -109 -151 -55 callgsubr
            2 48 108 6 94 hhcurveto
            95 104 -6 -2 47 hvcurveto
            44 callgsubr
            -112 17 callgsubr
            2 47 98 6 103 hhcurveto
            102 111 -6 -2 55 hvcurveto
            43 vlineto
            -111 -65 31 116 hvcurveto
            822 260 41 -260 192 vlineto
            return
          </CharString>
          <CharString index="31">
            rmoveto
            -64 -104 -141 -105 -178 -61 10 -29 rcurveline
            131 35 141 57 78 51 94 -51 174 -57 164 -35 11 29 rcurveline
            -179 61 -141 105 -63 104 rrcurveto
            return
          </CharString>
          <CharString index="32">
            209 115 164 172 148 18 -56 callgsubr
            547 vlineto
            140 -20 73 -51 56 vhcurveto
            return
          </CharString>
          <CharString index="33">
            9 callgsubr
            96 6 90 -19 callgsubr
            return
          </CharString>
          <CharString index="34">
            1749 rmoveto
            -60 -104 -135 -105 -168 -61 10 -29 rcurveline
            123 35 133 57 74 51 90 -51 166 -57 156 -35 10 29 rcurveline
            -168 61 -135 105 -59 104 rrcurveto
            return
          </CharString>
          <CharString index="35">
            rmoveto
            -63 callgsubr
            -1165 103 callgsubr
            65 4 115 298 callsubr
            118 -2 72 109 callsubr
            1165 111 vlineto
            256 30 -22 callsubr
            return
          </CharString>
          <CharString index="36">
            rmoveto
            hintmask 01101100
            -92 callgsubr
            hintmask 01110100
            -205 -86 -125 -72 -162 vvcurveto
            -160 123 -69 137 98 129 37 145 88 vhcurveto
            -96 33 -86 143 87 43 32 43 57 vhcurveto
            hintmask 10110100
            -23 35 rlineto
            -24 -28 -27 -19 -37 hhcurveto
            -47 -16 31 66 hvcurveto
            569 vlineto
            145 -17 76 -65 66 vhcurveto
            hintmask 01110100
            47 -47 -86 30 -115 hhcurveto
            145 -860 rmoveto
            -112 -69 -80 -43 -82 hhcurveto
            -94 -70 57 123 158 109 59 90 43 hvcurveto
            129 63 45 21 22 33 rrcurveto
            endchar
          </CharString>
          <CharString index="37">
            -14 callgsubr
            66 4 114 298 callsubr
            119 -2 71 hflex1
            41 vlineto
            32 callgsubr
            return
          </CharString>
          <CharString index="38">
            94 103 -2 63 -16 callgsubr
            return
          </CharString>
          <CharString index="39">
            -41 -43 2 4 -43 hvcurveto
            return
          </CharString>
          <CharString index="40">
            149 27 21 -44 callsubr
            -21 -149 vvcurveto
            return
          </CharString>
          <CharString index="41">
            -27 21 149 return
          </CharString>
          <CharString index="42">
            99 callgsubr
            141 callgsubr
            -811 -102 callsubr
            return
          </CharString>
          <CharString index="43">
            64 callsubr
            47 49 vvcurveto
            return
          </CharString>
          <CharString index="44">
            70 callgsubr
            -97 -7 -90 -38 callgsubr
            109 6 90 return
          </CharString>
          <CharString index="45">
            13 callsubr
            -117 -162 -160 -147 -8 108 127 vhcurveto
            return
          </CharString>
          <CharString index="46">
            -242 27 -47 callgsubr
            return
          </CharString>
          <CharString index="47">
            107 98 -51 callgsubr
            return
          </CharString>
          <CharString index="48">
            -15 42 -6 31 24 vvcurveto
            76 65 -1 78 vhcurveto
            43 vlineto
            -81 -6 -101 -7 -84 -69 -58 5 -53 159 callsubr
            47 -6 -109 43 hvcurveto
            336 -907 rlineto
            34 hlineto
            292 824 325 -824 rlineto
            35 hlineto
            297 880 35 107 47 31 51 6 rlinecurve
            41 vlineto
            return
          </CharString>
          <CharString index="49">
            1896 rmoveto
            -131 -34 -141 -58 -78 -51 -94 51 -174 58 -164 34 -10 -28 rcurveline
            178 -62 141 -104 64 -105 rrcurveto
            37 hlineto
            63 105 141 104 179 62 rrcurveto
            return
          </CharString>
          <CharString index="50">
            rmoveto
            -64 -51 -47 -62 -72 47 -38 60 34 31 14 18 21 hvcurveto
            -65 -64 -45 -63 -19 vhcurveto
            14 -37 rlineto
            131 48 37 63 98 vvcurveto
            80 -53 64 -80 vhcurveto
            endchar
          </CharString>
          <CharString index="51">
            31 41 10 4 16 hhcurveto
            35 19 -70 -47 2 hvcurveto
            41 406 hlineto
            151 14 18 90 7 301 callgsubr
            -5 -74 -2 -90 -92 -125 2 -72 hflex1
            -41 vlineto
            172 -7 35 -24 -166 vvcurveto
            -197 vlineto
            return
          </CharString>
          <CharString index="52">
            -381 -270 -308 -458 -469 260 -273 389 return
          </CharString>
          <CharString index="53">
            129 callgsubr
            90 96 -6 43 301 callsubr
            -98 72 callgsubr
            457 274 callsubr
            154 275 callsubr
            109 callgsubr
            219 callsubr
            97 6 90 90 108 -6 48 301 callsubr
            -113 18 callsubr
            return
          </CharString>
          <CharString index="54">
            47 callgsubr
            102 2 94 -60 callsubr
            return
          </CharString>
          <CharString index="55">
            1763 rmoveto
            38 25 16 29 27 vvcurveto
            13 -4 13 -7 12 vhcurveto
            21 -14 -22 13 -27 hhcurveto
            -19 -21 -6 -14 -22 hvcurveto
            -86 -55 -70 -90 -188 -143 14 -27 rcurveline
            211 107 113 22 88 53 rrcurveto
            return
          </CharString>
          <CharString index="56">
            rmoveto
            hintmask 1111010010110000
            45 callgsubr
            hintmask 1110110001101000
            21 callsubr
            hintmask 1111001001110000
            89 callgsubr
            hintmask 1111001010110000
            130 callgsubr
            hintmask 1111001100100100
            42 callgsubr
            hintmask 1111001001110000
            46 callsubr
            hintmask 1111001100100100
            31 callsubr
          </CharString>
          <CharString index="57">
            9 22 50 24 18 hhcurveto
            21 8 -18 -31 2 hvcurveto
            41 303 hlineto
            152 16 18 88 6 328 callgsubr
            -74 -2 -90 -92 -123 2 -74 hflex1
            -41 vlineto
            172 -6 35 -24 -166 vvcurveto
            return
          </CharString>
          <CharString index="58">
            4 -12 2 -13 -18 vvcurveto
            -80 -72 -86 -84 -35 vhcurveto
            19 -37 rlineto
            145 68 66 115 133 vvcurveto
            33 -6 57 -29 45 vhcurveto
            return
          </CharString>
          <CharString index="59">
            -21 -149 vvcurveto
            return
          </CharString>
          <CharString index="60">
            1790 rmoveto
            4 -12 -13 3 -12 hhcurveto
            -28 -26 -14 -34 -15 hvcurveto
            -29 -72 8 -92 -39 -141 27 -12 rcurveline
            78 124 67 58 33 72 rrcurveto
            5 12 2 11 11 vvcurveto
            32 -20 26 -26 12 vhcurveto
            return
          </CharString>
          <CharString index="61">
            139 6 vhcurveto
            return
          </CharString>
          <CharString index="62">
            139 -6 return
          </CharString>
          <CharString index="63">
            -46 callsubr
            41 vlineto
            -63 -4 -103 -2 -94 -106 -99 2 -57 hflex1
            -41 vlineto
            99 callgsubr
            return
          </CharString>
          <CharString index="64">
            -109 -37 -90 -65 -119 hhcurveto
            -35 -69 6 27 -27 330 callgsubr
            35 59 294 callgsubr
            -64 -57 31 -49 67 -35 vhcurveto
            -19 37 59 -18 76 hhcurveto
            234 153 145 189 45 hvcurveto
            33 137 2 227 170 vvcurveto
            750 190 callsubr
          </CharString>
          <CharString index="65">
            -102 -2 -95 -106 83 callsubr
            return
          </CharString>
          <CharString index="66">
            -107 -33 -62 -65 -98 hhcurveto
            -20 -23 2 2 -12 hvcurveto
            31 18 22 37 35 vvcurveto
            55 -47 43 -53 -56 -43 -43 -55 -47 23 -31 33 -20 vhcurveto
            -25 39 51 -8 47 hhcurveto
            217 131 141 189 43 hvcurveto
            31 137 4 227 170 vvcurveto
            545 vlineto
            311 callsubr
            6 vhcurveto
            endchar
          </CharString>
          <CharString index="67">
            -55 callgsubr
            2 48 98 6 102 hhcurveto
            103 110 -6 -2 56 hvcurveto
            124 callgsubr
            return
          </CharString>
          <CharString index="68">
            129 callgsubr
            90 97 -6 43 301 callsubr
            return
          </CharString>
          <CharString index="69">
            33 114 hvcurveto
            return
          </CharString>
          <CharString index="70">
            -53 -70 -4 -47 -108 -64 21 -80 hhcurveto
            -98 -90 -31 -64 -72 hvcurveto
            -117 -102 -14 -148 -204 -3 callgsubr
            94 5 109 65 65 vhcurveto
            31 31 45 27 65 hhcurveto
            54 75 -19 -51 50 hvcurveto
            32 -35 23 -47 -88 vvcurveto
            return
          </CharString>
          <CharString index="71">
            -212 -102 callsubr
            271 vlineto
            322 575 51 92 33 35 47 12 rlinecurve
            43 vlineto
            return
          </CharString>
          <CharString index="72">
            -80 -61 callsubr
            return
          </CharString>
          <CharString index="73">
            -64 callsubr
            47 4 99 return
          </CharString>
          <CharString index="74">
            rmoveto
            -151 -91 -80 -84 -45 hvcurveto
            -17 callgsubr
            hintmask 11101000
            90 -4 59 -64 -94 vvcurveto
            -150 -197 -118 -210 -6 vhcurveto
            -35 vlineto
            247 285 118 191 119 -113 63 -125 2 hvcurveto
            hintmask 11110000
            110 callsubr
            vhcurveto
            endchar
          </CharString>
          <CharString index="75">
            220 callsubr
            -17 -14 -11 -20 -23 vvcurveto
            -21 9 -24 19 -25 vhcurveto
            63 -80 98 -59 162 -172 22 callgsubr
            return
          </CharString>
          <CharString index="76">
            239 callgsubr
            -14 53 115 -30 hvcurveto
            -57 217 -35 131 -101 68 -184 26 rlinecurve
            -27 4 -24 3 -29 2 363 393 rcurveline
            98 106 53 23 99 18 rrcurveto
            39 vlineto
            -39 -4 -49 -2 -64 -63 -99 2 -73 hflex1
            -39 vlineto
            80 -2 36 -25 -38 vvcurveto
            -27 -18 -33 -31 -37 vhcurveto
            -215 -239 -91 -109 -73 -21 -82 -6 rlinecurve
            359 vlineto
            150 27 20 -44 callsubr
            141 callgsubr
            -811 36 callsubr
            412 95 vlineto
            208 37 -88 -135 35 hvcurveto
            55 -213 rlineto
            hintmask 10111000
            -195 50 77 -27 86 hhcurveto
            123 49 54 77 54 hvcurveto
            endchar
          </CharString>
          <CharString index="77">
            24 0 47 688 35 639 35 -19 callsubr
            439 196 -98 205 hintmask 11110100
            766 770 rmoveto
            hintmask 11111000
            229 70 82 141 145 vvcurveto
            189 -145 133 -287 32 callsubr
            -107 callgsubr
            57 4 101 2 96 168 123 -6 61 hflex1
            hintmask 11110100
            307 185 164 233 166 -94 160 -324 43 hvcurveto
            -172 643 rmoveto
            hintmask 11111000
            205 82 -104 -201 -178 -60 -156 -241 hvcurveto
            -138 463 hlineto
            hintmask 11110100
            114 callsubr
            2 -1362 rmoveto
            -127 -27 27 143 hvcurveto
            518 172 vlineto
            260 105 -121 -208 -230 -115 -129 -268 hvcurveto
            endchar
          </CharString>
          <CharString index="78">
            254 callsubr
            -51 hhcurveto
            -56 -16 46 122 -28 hvcurveto
            -59 258 -53 229 -162 59 -194 8 rlinecurve
            386 491 78 98 80 39 84 261 callgsubr
            -41 -4 -64 -2 -69 -72 269 callgsubr
            87 -2 40 -25 -47 vvcurveto
            -45 -37 -66 -67 -85 vhcurveto
            -197 -250 -51 -66 -76 -51 -115 -2 rlinecurve
            463 vlineto
            -67 callsubr
            -1016 36 callsubr
            514 136 vlineto
            208 31 -115 -170 39 hvcurveto
            57 -253 rlineto
            hintmask 10111000
            -183 41 82 -39 97 hhcurveto
            114 51 54 77 54 hvcurveto
            endchar
          </CharString>
          <CharString index="79">
            -177 vlineto
            -43 -14 -22 -49 -12 vhcurveto
            -11 -43 -51 -6 -64 hhcurveto
            -297 -160 183 426 378 154 238 248 151 90 -68 -92 80 hvcurveto
            return
          </CharString>
          <CharString index="80">
            -41 vlineto
            -45 callsubr
            47 300 callgsubr
            -639 vlineto
            -305 -84 -225 -309 return
          </CharString>
          <CharString index="81">
            64 55 53 66 63 -55 56 -64 return
          </CharString>
          <CharString index="82">
            385 1606 79 callsubr
            -1170 -93 callgsubr
            return
          </CharString>
          <CharString index="83">
            rmoveto
            -82 -82 -29 -43 -51 hvcurveto
            27 250 rlineto
            287 hlineto
            238 callsubr
            9 58 18 250 callgsubr
            -209 hlineto
            -29 -28 2 4 -21 hvcurveto
            -43 -393 33 -15 rlineto
            33 41 61 23 74 hhcurveto
            115 47 -70 -84 -184 -195 -90 -213 -4 hvcurveto
            -35 vlineto
            258 287 112 211 101 -78 100 -174 hvcurveto
            endchar
          </CharString>
          <CharString index="84">
            vstem
            707 736 rmoveto
            323 323 105 100 47 29 98 18 rlinecurve
            39 vlineto
            -39 -4 -51 -2 -55 -72 -96 2 -74 hflex1
            -39 vlineto
            82 -2 39 -28 -40 vvcurveto
            -27 -18 -32 -35 -33 vhcurveto
            -244 -249 -110 -106 -76 -26 -89 -6 rlinecurve
            371 vlineto
            -94 callgsubr
            -139 6 -66 callsubr
            vvcurveto
            406 vlineto
            111 -4 46 -33 54 -74 273 -379 rcurveline
            16 -21 10 -18 -13 vvcurveto
            -25 -32 -12 -91 -3 -58 callgsubr
            121 6 84 0 56 67 96 -2 66 -16 callgsubr
            -64 25 -49 40 -47 60 rrcurveto
            return
          </CharString>
          <CharString index="85">
            -98 -285 29 20 callgsubr
            -4 43 -2 59 66 vvcurveto
            51 4 107 10 104 vhcurveto
            return
          </CharString>
          <CharString index="86">
            14 27 rcurveline
            -188 143 -70 90 -86 55 rrcurveto
            return
          </CharString>
          <CharString index="87">
            -53 callgsubr
            -960 hlineto
            return
          </CharString>
          <CharString index="88">
            hstemhm
            -54 callgsubr
            return
          </CharString>
          <CharString index="89">
            rmoveto
            -186 -158 -102 -184 -173 140 -96 147 74 102 27 81 53 hvcurveto
            -48 -245 -194 -73 -157 -31 4 -35 rcurveline
            217 26 328 146 336 vvcurveto
            207 -123 116 -199 vhcurveto
            -22 -497 rmoveto
            -99 -83 57 162 170 92 63 98 92 105 -57 -223 -18 -1 -18 -1 -16 hvcurveto
            -93 -41 -97 -27 -65 hhcurveto
            endchar
          </CharString>
          <CharString index="90">
            -127 -6 -176 0 -125 -123 -270 0 -201 hflex1
            return
          </CharString>
          <CharString index="91">
            491 0 102 callgsubr
            1001 191 hintmask 10111000
            1657 278 callsubr
            -4 -64 -102 -2 -94 hhcurveto
            -97 hlineto
            -439 -992 -410 998 rlineto
            -52 -4 -55 -77 callgsubr
            876 vlineto
            hintmask 01111000
            475 -1124 rlineto
            33 hlineto
            493 1126 rlineto
            -899 vlineto
            hintmask 10111000
            -149 -26 -104 callsubr
            57 183 callsubr
            102 -2 64 189 callgsubr
          </CharString>
          <CharString index="92">
            -83 callgsubr
            47 2 return
          </CharString>
          <CharString index="93">
            1614 rmoveto
            -92 -55 -101 -105 -176 hhcurveto
            -176 -100 105 92 -56 hvcurveto
            -34 -19 rlineto
            -137 57 121 -162 188 hhcurveto
            189 121 162 137 57 hvcurveto
            return
          </CharString>
          <CharString index="94">
            1581 rmoveto
            63 56 53 66 63 -56 56 -63 -66 130 callsubr
            66 hvcurveto
            434 hmoveto
            -26 callsubr
            -65 -54 -56 -63 -66 54 -53 65 hvcurveto
            return
          </CharString>
          <CharString index="95">
            1819 rmoveto
            -66 130 callsubr
            66 63 56 53 66 63 -56 56 -63 220 callgsubr
            -54 -56 -63 -66 54 -7 callgsubr
            return
          </CharString>
          <CharString index="96">
            -62 -64 -123 -71 -196 hhcurveto
            -197 -121 69 62 -63 hvcurveto
            -27 -21 rlineto
            -106 66 133 -131 209 hhcurveto
            return
          </CharString>
          <CharString index="97">
            hstem
            -54 callgsubr
            return
          </CharString>
          <CharString index="98">
            vstem
            599 656 rmoveto
            249 262 57 59 60 31 67 6 rlinecurve
            41 vlineto
            -41 -4 -69 -4 -68 -59 -101 4 -71 hflex1
            -41 vlineto
            86 65 -20 -50 -28 -19 -37 -46 -48 hvcurveto
            -152 -157 -47 -49 -48 -25 -81 -11 rlinecurve
            1017 34 callgsubr
            -1170 -15 callsubr
            107 6 94 86 98 -6 43 301 callsubr
            -98 72 callgsubr
            357 vlineto
            72 -3 32 -17 50 -70 235 -344 rcurveline
            8 -11 4 -11 -9 vvcurveto
            -23 -24 -16 -39 84 callgsubr
            98 6 86 62 73 -6 31 301 callsubr
            -61 8 -35 35 -47 64 rrcurveto
            return
          </CharString>
          <CharString index="99">
            58 callgsubr
            99 callgsubr
            return
          </CharString>
          <CharString index="100">
            811 vlineto
            311 callsubr
            6 vhcurveto
            return
          </CharString>
          <CharString index="101">
            231 0 37 672 41 663 37 hstem
            254 190 721 205 vstem
            647 161 callgsubr
            -483 -166 -41 166 -492 -4 callsubr
            471 270 295 446 457 -235 252 -488 hvcurveto
            -49 -1413 rmoveto
            -127 -27 33 143 hvcurveto
            496 285 41 -285 487 vlineto
            141 27 35 125 424 145 -221 -459 -446 -121 -250 -446 vhcurveto
            endchar
          </CharString>
          <CharString index="102">
            rmoveto
            hintmask 1000101110000000
            -20 -59 -74 -8 -80 hhcurveto
            hintmask 1000010110000000
            -41 -43 2 4 -43 hvcurveto
            hintmask 1000101110000000
            -62 callsubr
            hintmask 1000001110000000
            805 vlineto
            hintmask 1000101110000000
            -20 -60 -73 -8 -80 hhcurveto
            hintmask 1000010110000000
            -41 -43 2 4 -43 hvcurveto
            hintmask 1000101110000000
            -71 callgsubr
            hintmask 0100001110000000
            -242 vlineto
            hintmask 0010001110000000
            131 callsubr
            hintmask 0001001110000000
            41 43 -2 -4 43 hvcurveto
            hintmask 0010001110000000
            68 callsubr
          </CharString>
          <CharString index="103">
            65 callsubr
            88 137 340 callsubr
            return
          </CharString>
          <CharString index="104">
            hhcurveto
            29 callsubr
            return
          </CharString>
          <CharString index="105">
            -106 callsubr
            471 195 vlineto
            162 30 -117 -174 39 hvcurveto
            45 -204 rlineto
            return
          </CharString>
          <CharString index="106">
            -106 callsubr
            358 117 vlineto
            137 76 -32 -160 39 hvcurveto
            63 -256 rlineto
            return
          </CharString>
          <CharString index="107">
            -54 0 41 545 41 782 35 -10 callsubr
            492 205 vstem
            442 586 rmoveto
            158 hlineto
            424 115 260 198 238 -164 166 -330 hvcurveto
            -49 -131 -4 -129 hhcurveto
            -90 -103 2 4 -57 hvcurveto
            -41 vlineto
            139 -6 27 -21 -149 vvcurveto
            -1016 -66 callgsubr
            152 1192 rmoveto
            248 92 -129 -258 -209 -64 -186 -290 hvcurveto
            -138 606 209 callgsubr
          </CharString>
          <CharString index="108">
            278 callsubr
            -27 callgsubr
            -17 -14 -11 -20 -23 vvcurveto
            -21 9 -24 19 -25 vhcurveto
            63 -80 98 -59 162 -172 rrcurveto
            return
          </CharString>
          <CharString index="109">
            -93 0 41 463 41 659 35 -10 callsubr
            451 205 vstem
            442 504 rmoveto
            138 hlineto
            407 111 223 174 201 -152 141 -301 hvcurveto
            -49 -131 -4 -129 hhcurveto
            -90 -103 2 4 -57 hvcurveto
            -41 vlineto
            -65 callsubr
            152 987 rmoveto
            219 80 -110 -215 -179 -59 -155 -275 hvcurveto
            -117 483 209 callgsubr
          </CharString>
          <CharString index="110">
            48 callsubr
            101 17 callsubr
            434 vlineto
            return
          </CharString>
          <CharString index="111">
            rmoveto
            -145 -92 -80 -84 -45 hvcurveto
            30 -16 rlineto
            78 50 63 33 82 hhcurveto
            84 49 -33 -78 -192 -239 -134 -121 -102 hvcurveto
            -41 450 vlineto
            return
          </CharString>
          <CharString index="112">
            rmoveto
            -238 -153 -147 -195 -199 160 -124 215 233 158 147 197 194 -156 127 -219 hvcurveto
            -12 -41 rmoveto
            133 114 -80 -204 -189 -98 -110 -139 -135 -115 79 207 189 98 108 142 hvcurveto
            endchar
          </CharString>
          <CharString index="113">
            16 callsubr
            27 return
          </CharString>
          <CharString index="114">
            rmoveto
            -486 hlineto
            -26 -27 0 6 -25 hvcurveto
            -2 -51 -8 -58 -18 -71 35 -7 rcurveline
            45 18 12 25 66 hhcurveto
            377 hlineto
            -134 -189 -192 -204 -240 vvcurveto
            -37 21 -32 45 38 29 26 37 vhcurveto
            25 -6 32 39 vvcurveto
            -4 275 197 172 90 162 rrcurveto
            endchar
          </CharString>
          <CharString index="115">
            -62 -29 66 -41 -21 29 37 -22 -21 1014 84 callsubr
            return
          </CharString>
          <CharString index="116">
            vvcurveto
            -80 64 -53 98 90 78 43 96 63 vhcurveto
            return
          </CharString>
          <CharString index="117">
            -43 vlineto
            119 return
          </CharString>
          <CharString index="118">
            -58 -123 hvcurveto
            return
          </CharString>
          <CharString index="119">
            vhcurveto
            -47 hlineto
            return
          </CharString>
          <CharString index="120">
            -48 callgsubr
            -423 vlineto
            -209 return
          </CharString>
          <CharString index="121">
            246 callgsubr
            96 callsubr
            return
          </CharString>
          <CharString index="122">
            16 callgsubr
            27 return
          </CharString>
          <CharString index="123">
            1016 vlineto
            149 return
          </CharString>
          <CharString index="124">
            6 94 127 125 -6 63 301 callsubr
            -135 -82 35 133 hvcurveto
            return
          </CharString>
          <CharString index="125">
            -43 -38 callsubr
            return
          </CharString>
          <CharString index="126">
            321 callgsubr
            hintmask 10001110
            256 vlineto
            hintmask 11000110
            -20 -32 callgsubr
            hintmask 10010110
            -68 callsubr
            hintmask 11000110
            3 callsubr
            hintmask 10100110
            37 callgsubr
            endchar
          </CharString>
          <CharString index="127">
            rmoveto
            -6 -102 -144 0 -100 hhcurveto
            hintmask 11010000
            -49 0 -73 -1 -83 -41 -44 0 -44 hflex1
            hintmask 10110000
            -88 -92 4 2 -80 57 callsubr
            141 callgsubr
            -811 -66 callgsubr
            811 vlineto
            hintmask 11011000
            76 callgsubr
            47 282 callsubr
            60 65 vvcurveto
            hintmask 10111000
            51 4 107 10 104 vhcurveto
            endchar
          </CharString>
          <CharString index="128">
            7 34 9 28 9 23 13 28 14 25 16 6 rrcurveto
            -61 7 41 -35 57 hhcurveto
            70 41 51 61 64 -46 45 -63 -66 -51 -49 -47 -30 hvcurveto
            -26 -39 -25 -53 -13 -69 rrcurveto
            return
          </CharString>
          <CharString index="129">
            51 callgsubr
            -1016 -4 callsubr
            471 270 295 446 457 -235 252 -488 hvcurveto
            -51 -37 rmoveto
            424 145 -221 -459 -446 -121 -250 -446 -127 -27 33 143 hvcurveto
            1024 vlineto
            173 callgsubr
          </CharString>
          <CharString index="130">
            rmoveto
            -381 -278 -301 -478 -456 247 -273 424 133 97 43 68 90 hvcurveto
            return
          </CharString>
          <CharString index="131">
            253 callsubr
            -72 59 -59 72 71 60 59 72 72 -60 59 -71 hvcurveto
            return
          </CharString>
          <CharString index="132">
            100 callsubr
            47 2 return
          </CharString>
          <CharString index="133">
            rmoveto
            -145 -127 -82 -136 -16 hvcurveto
            34 -10 rlineto
            88 37 66 31 82 188 131 -158 201 hhcurveto
            145 127 82 135 17 hvcurveto
            -35 11 rlineto
            -88 -37 -66 -31 -81 -189 -131 158 -201 hhcurveto
            endchar
          </CharString>
          <CharString index="134">
            477 0 43 967 43 hstem
            173 callsubr
            373 184 373 184 vstem
            1669 297 callgsubr
            -111 -7 -86 -86 -86 128 callsubr
            -90 -7 -78 -78 -90 88 callsubr
            return
          </CharString>
          <CharString index="135">
            -26 callgsubr
            endchar
          </CharString>
          <CharString index="136">
            -90 -103 2 4 -57 57 callsubr
            return
          </CharString>
          <CharString index="137">
            21 -64 callsubr
            return
          </CharString>
          <CharString index="138">
            -11 -1397 rmoveto
            -123 -139 59 131 84 52 78 91 47 hvcurveto
            357 hlineto
            121 35 -35 -71 -189 -215 -104 -179 hvcurveto
            endchar
          </CharString>
          <CharString index="139">
            vhcurveto
            37 callsubr
            return
          </CharString>
          <CharString index="140">
            -80 callgsubr
            endchar
          </CharString>
          <CharString index="141">
            54 callsubr
            -21 -149 vvcurveto
            return
          </CharString>
          <CharString index="142">
            -79 callgsubr
            endchar
          </CharString>
          <CharString index="143">
            vlineto
            hintmask 01111000
            -106 callsubr
            return
          </CharString>
          <CharString index="144">
            18 callgsubr
            -21 -149 vvcurveto
            -1016 vlineto
            return
          </CharString>
          <CharString index="145">
            -37 -27 -47 -31 -51 hhcurveto
            -56 -32 37 53 return
          </CharString>
          <CharString index="146">
            237 callsubr
            hstem
            165 callgsubr
            891 205 vstem
            return
          </CharString>
          <CharString index="147">
            rmoveto
            -79 0 -97 -9 -90 -38 callgsubr
            101 17 callsubr
            651 vlineto
            115 37 35 99 vhcurveto
            88 hlineto
            168 24 -82 -242 30 callsubr
            47 4 94 10 97 vhcurveto
            endchar
          </CharString>
          <CharString index="148">
            -2 -68 -21 callgsubr
            return
          </CharString>
          <CharString index="149">
            108 callgsubr
            141 callgsubr
            -731 vlineto
            -283 -9 -100 -26 -86 vhcurveto
            return
          </CharString>
          <CharString index="150">
            vstem
            258 callsubr
            35 21 172 6 vhcurveto
            41 vlineto
            -71 -4 -119 -2 -111 -106 -99 2 -57 hflex1
            -41 vlineto
            295 callsubr
            -1016 vlineto
            -107 callgsubr
            57 4 99 2 106 94 80 -6 64 hflex1
            424 114 254 199 237 -163 172 -330 hvcurveto
            return
          </CharString>
          <CharString index="151">
            11 31 47 4 23 hhcurveto
            55 31 -19 -39 -73 -105 -19 -80 -32 -31 4 2 -14 hvcurveto
            -9 -36 rlineto
            -13 37 58 -10 75 hhcurveto
            99 133 41 115 61 -49 35 -76 -45 -41 -6 -8 -35 hvcurveto
            return
          </CharString>
          <CharString index="152">
            -40 callsubr
            330 185 callsubr
            94 107 155 callsubr
            return
          </CharString>
          <CharString index="153">
            -264 822 rmoveto
            114 72 -68 -219 -219 -72 -68 -114 -115 -72 68 219 219 72 68 115 hvcurveto
            return
          </CharString>
          <CharString index="154">
            rmoveto
            -13 -33 -35 -11 -54 hhcurveto
            -10 -11 0 1 -12 hvcurveto
            -43 vlineto
            34 7 -29 -53 -37 -9 -75 -32 -185 hvcurveto
            28 -8 rlineto
            84 176 54 113 80 vvcurveto
            24 -5 45 -6 15 vhcurveto
            return
          </CharString>
          <CharString index="155">
            39 callgsubr
            47 2 return
          </CharString>
          <CharString index="156">
            -5 0 75 callgsubr
            return
          </CharString>
          <CharString index="157">
            vlineto
            115 43 33 113 vhcurveto
            return
          </CharString>
          <CharString index="158">
            43 vlineto
            -119 -37 57 123 hvcurveto
            return
          </CharString>
          <CharString index="159">
            9 callsubr
            -30 27 rlineto
            return
          </CharString>
          <CharString index="160">
            -469 -541 rlineto
            -43 397 -240 115 240 41 vlineto
            26 27 0 -6 24 hvcurveto
            return
          </CharString>
          <CharString index="161">
            52 callgsubr
            99 callgsubr
            return
          </CharString>
          <CharString index="162">
            70 callgsubr
            -99 -7 -90 -90 -107 7 57 callgsubr
            -115 hvcurveto
            -672 -15 callsubr
            107 6 90 90 154 callgsubr
            336 vlineto
            147 3 88 -18 60 -83 58 -80 30 -129 21 -69 rrcurveto
            return
          </CharString>
          <CharString index="163">
            -652 314 callgsubr
            84 callsubr
            return
          </CharString>
          <CharString index="164">
            76 callsubr
            27 return
          </CharString>
          <CharString index="165">
            rmoveto
            -182 -98 162 331 2 hvcurveto
            346 -2 121 164 162 hhcurveto
            106 83 -47 -111 40 hvcurveto
            -609 vlineto
            -155 -32 -97 -81 -103 hhcurveto
            endchar
          </CharString>
          <CharString index="166">
            -216 -29 86 576 39 372 39 return
          </CharString>
          <CharString index="167">
            1370 rmoveto
            -39 58 88 -35 135 hhcurveto
            135 88 35 39 57 hvcurveto
            58 39 39 51 58 vvcurveto
            63 -45 45 -64 157 callsubr
            vhcurveto
            -59 -55 -112 -15 -74 hhcurveto
            -74 -113 15 59 -55 330 callgsubr
            37 58 vvcurveto
            69 -51 41 -61 -64 -45 -45 -63 -58 39 -51 57 -39 vhcurveto
            return
          </CharString>
          <CharString index="168">
            1679 rmoveto
            -43 72 106 -34 142 hhcurveto
            141 107 34 43 71 hvcurveto
            68 41 31 41 58 vvcurveto
            69 -46 43 -63 157 callsubr
            vhcurveto
            -59 -63 -133 -15 -86 hhcurveto
            -86 -133 15 59 -64 330 callgsubr
            37 58 vvcurveto
            69 -49 41 -63 -64 -45 -43 -69 -58 31 -41 67 -41 vhcurveto
            return
          </CharString>
          <CharString index="169">
            811 vlineto
            150 27 20 -44 callsubr
            141 callgsubr
            -811 vlineto
            return
          </CharString>
          <CharString index="170">
            rmoveto
            -43 72 106 -35 142 hhcurveto
            141 107 35 43 71 hvcurveto
            68 41 31 41 57 vvcurveto
            70 -46 43 -63 217 callsubr
            vhcurveto
            -60 -63 -133 -14 -86 hhcurveto
            -86 -133 14 60 -64 330 callgsubr
            37 57 329 callgsubr
            -63 -64 -45 -43 -70 -57 31 -41 67 -41 vhcurveto
            return
          </CharString>
          <CharString index="171">
            10 callgsubr
            -2 return
          </CharString>
          <CharString index="172">
            vlineto
            -107 callgsubr
            57 4 101 2 96 return
          </CharString>
          <CharString index="173">
            424 172 297 267 return
          </CharString>
          <CharString index="174">
            vlineto
            87 -53 -96 34 -97 hhcurveto
            -246 -219 -184 -373 2 hvcurveto
            -372 -2 164 -183 256 hhcurveto
            142 99 66 122 50 hvcurveto
            return
          </CharString>
          <CharString index="175">
            51 callsubr
            endchar
          </CharString>
          <CharString index="176">
            hstemhm
            80 180 -133 231 297 185 return
          </CharString>
          <CharString index="177">
            -207 -2 -114 -6 -88 vhcurveto
            47 hlineto
            return
          </CharString>
          <CharString index="178">
            rmoveto
            -180 -183 -127 -244 -244 183 -127 180 180 182 127 244 244 -182 127 -180 hvcurveto
            return
          </CharString>
          <CharString index="179">
            hintmask 01100000
            541 1259 38 callgsubr
            309 callgsubr
            34 15 rcurveline
            229 callgsubr
            rrcurveto
            hintmask 10100000
            141 122 111 144 100 268 rrcurveto
            return
          </CharString>
          <CharString index="180">
            hvcurveto
            -4 12 -2 13 18 vvcurveto
            80 72 86 84 35 vhcurveto
            -19 37 rlineto
            -145 -68 -66 -115 -133 vvcurveto
            -33 6 -57 29 -45 vhcurveto
            -39 25 return
          </CharString>
          <CharString index="181">
            47 75 callsubr
            return
          </CharString>
          <CharString index="182">
            559 146 callsubr
            return
          </CharString>
          <CharString index="183">
            hvcurveto
            -41 vlineto
            -45 callsubr
            return
          </CharString>
          <CharString index="184">
            41 vlineto
            -97 callgsubr
            28 callsubr
          </CharString>
          <CharString index="185">
            vstem
            547 1188 38 callgsubr
            217 -121 141 -182 342 callgsubr
            35 14 rcurveline
            -101 268 -110 158 -142 123 142 123 110 143 101 269 rrcurveto
            return
          </CharString>
          <CharString index="186">
            rmoveto
            -72 callgsubr
            return
          </CharString>
          <CharString index="187">
            2 -58 hflex1
            -41 vlineto
            return
          </CharString>
          <CharString index="188">
            56 vhcurveto
            49 -47 -65 28 -105 hhcurveto
            -139 -137 -61 284 callsubr
            return
          </CharString>
          <CharString index="189">
            102 99 callsubr
            return
          </CharString>
          <CharString index="190">
            -98 80 callsubr
            return
          </CharString>
          <CharString index="191">
            37 6 -20 42 -20 return
          </CharString>
          <CharString index="192">
            80 rrcurveto
            -43 callgsubr
            return
          </CharString>
          <CharString index="193">
            -153 -71 -107 -52 -123 hhcurveto
            return
          </CharString>
          <CharString index="194">
            -79 callsubr
            hintmask 01111000
            return
          </CharString>
          <CharString index="195">
            7 -39 -5 callgsubr
            84 31 202 callgsubr
            return
          </CharString>
          <CharString index="196">
            -5 -21 1058 39 hstemhm
            121 47 -47 153 return
          </CharString>
          <CharString index="197">
            -232 -14 67 -67 82 974 41 return
          </CharString>
          <CharString index="198">
            -21 -32 callgsubr
            return
          </CharString>
          <CharString index="199">
            108 callsubr
            -86 -7 -86 -86 -111 7 57 callgsubr
            -115 hvcurveto
            -672 129 callgsubr
            return
          </CharString>
          <CharString index="200">
            rmoveto
            500 -43 vlineto
            174 callsubr
            -35 6 rcurveline
            -45 -18 -12 -24 -66 hhcurveto
            -131 hmoveto
            -316 hlineto
            316 367 rlineto
            endchar
          </CharString>
          <CharString index="201">
            rmoveto
            -280 -197 335 callsubr
            254 219 117 152 133 41 hvcurveto
            -39 14 rlineto
            -155 -72 -119 -56 -106 hhcurveto
            -158 -137 123 363 387 158 115 135 return
          </CharString>
          <CharString index="202">
            7 133 callgsubr
            return
          </CharString>
          <CharString index="203">
            -98 84 callgsubr
            return
          </CharString>
          <CharString index="204">
            1464 1450 34 callsubr
            return
          </CharString>
          <CharString index="205">
            53 4 37 328 callsubr
            return
          </CharString>
          <CharString index="206">
            111 callsubr
            6 -26 return
          </CharString>
          <CharString index="207">
            -109 7 57 callgsubr
            -115 hvcurveto
            -672 -83 callgsubr
            return
          </CharString>
          <CharString index="208">
            43 969 37 -31 65 -28 125 callgsubr
            return
          </CharString>
          <CharString index="209">
            41 -30 276 callsubr
            hstemhm
            252 47 return
          </CharString>
          <CharString index="210">
            hstem
            96 314 callsubr
            199 vstem
            return
          </CharString>
          <CharString index="211">
            4 37 12 callsubr
            return
          </CharString>
          <CharString index="212">
            hflex1
            328 115 170 152 167 -115 125 -297 hvcurveto
            -53 -571 rmoveto
            -111 -39 37 110 hvcurveto
            390 82 vlineto
            242 98 -82 -189 -141 -53 -125 -219 hvcurveto
            endchar
          </CharString>
          <CharString index="213">
            rrcurveto
            -35 hlineto
            -94 -207 -135 -119 -195 -57 195 -58 135 -118 94 -207 rrcurveto
            35 hlineto
            return
          </CharString>
          <CharString index="214">
            238 hstemhm
            12 238 2 190 4 238 hintmask 00000000
            hintmask 11110100
            131 return
          </CharString>
          <CharString index="215">
            72 callgsubr
            672 vlineto
            115 31 33 84 vhcurveto
            43 vlineto
            -39 -2 return
          </CharString>
          <CharString index="216">
            -16 callgsubr
            -172 6 -35 255 callgsubr
            return
          </CharString>
          <CharString index="217">
            109 31 82 68 94 vvcurveto
            96 -84 53 -123 return
          </CharString>
          <CharString index="218">
            -2 64 158 callsubr
            return
          </CharString>
          <CharString index="219">
            -2 49 -16 callgsubr
            return
          </CharString>
          <CharString index="220">
            rmoveto
            -78 -137 -4 -2 -94 hvcurveto
            -17 -16 -1 -17 hhcurveto
            -76 -77 4 3 -47 57 callsubr
            return
          </CharString>
          <CharString index="221">
            141 27 35 125 vhcurveto
            return
          </CharString>
          <CharString index="222">
            1450 rmoveto
            -63 callgsubr
            return
          </CharString>
          <CharString index="223">
            -42 0 41 1366 43 hstem
            528 191 277 208 vstem
            return
          </CharString>
          <CharString index="224">
            hstemhm
            188 185 432 184 return
          </CharString>
          <CharString index="225">
            140 callsubr
            rlineto
            return
          </CharString>
          <CharString index="226">
            -20 105 callgsubr
            return
          </CharString>
          <CharString index="227">
            1772 rmoveto
            -104 -92 -72 -115 -117 92 -71 104 107 92 71 117 115 -92 72 -107 hvcurveto
            -43 vmoveto
            68 74 -52 149 callsubr
            52 65 hvcurveto
            return
          </CharString>
          <CharString index="228">
            1434 rmoveto
            59 104 135 104 168 62 -10 29 rcurveline
            -123 -35 -133 -58 -74 -51 -90 51 -166 58 -156 35 -10 -29 rcurveline
            168 -62 135 -104 60 -104 rrcurveto
            return
          </CharString>
          <CharString index="229">
            -57 110 callgsubr
            return
          </CharString>
          <CharString index="230">
            -10 callgsubr
            666 190 vstem
            return
          </CharString>
          <CharString index="231">
            238 2 133 6 100 vhcurveto
            return
          </CharString>
          <CharString index="232">
            -291 -32 231 281 return
          </CharString>
          <CharString index="233">
            -273 -30 211 260 return
          </CharString>
          <CharString index="234">
            hstemhm
            111 204 return
          </CharString>
          <CharString index="235">
            88 callsubr
            -102 hlineto
            -99 108 callsubr
            return
          </CharString>
          <CharString index="236">
            -257 -29 88 988 36 hstem
            94 199 391 221 vstem
            return
          </CharString>
          <CharString index="237">
            -53 -56 -63 -66 53 -53 return
          </CharString>
          <CharString index="238">
            21 59 74 8 80 hhcurveto
            return
          </CharString>
          <CharString index="239">
            172 callgsubr
            -86 -6 -105 -127 vvcurveto
            return
          </CharString>
          <CharString index="240">
            -144 93 -119 57 121 vvcurveto
            102 84 55 113 96 86 -38 -48 39 vhcurveto
            -47 -55 -22 -61 -45 vvcurveto
            -54 30 -49 62 53 41 39 72 57 -25 71 -46 41 vhcurveto
            return
          </CharString>
          <CharString index="241">
            207 callgsubr
            hstemhm
            422 129 -78 125 269 callsubr
            344 return
          </CharString>
          <CharString index="242">
            -78 45 -53 74 68 41 47 62 57 -35 55 -96 -160 -43 -145 -115 -39 vhcurveto
            return
          </CharString>
          <CharString index="243">
            2 vlineto
            -217 121 -141 182 -113 252 rrcurveto
            return
          </CharString>
          <CharString index="244">
            209 133 131 106 65 hvcurveto
            return
          </CharString>
          <CharString index="245">
            96 -29 72 1161 41 return
          </CharString>
          <CharString index="246">
            -22 callsubr
            endchar
          </CharString>
          <CharString index="247">
            rmoveto
            127 callgsubr
            return
          </CharString>
          <CharString index="248">
            -33 -115 hvcurveto
            return
          </CharString>
          <CharString index="249">
            348 vlineto
            150 27 20 -44 callsubr
            141 callgsubr
            -811 vlineto
            return
          </CharString>
          <CharString index="250">
            4 43 12 callsubr
            return
          </CharString>
          <CharString index="251">
            601 11 276 callsubr
            hstem
            -14 1872 vstem
            return
          </CharString>
          <CharString index="252">
            112 callsubr
            -97 callgsubr
            return
          </CharString>
          <CharString index="253">
            41 551 47 -41 41 return
          </CharString>
          <CharString index="254">
            -145 hhcurveto
            -17 -18 2 2 -12 hvcurveto
            30 18 23 39 37 vvcurveto
            53 -47 43 -56 -53 -43 -39 -63 -92 88 -35 96 162 129 100 471 vhcurveto
            return
          </CharString>
          <CharString index="255">
            -277 0 31 -18 -21 1032 31 10 -20 return
          </CharString>
          <CharString index="256">
            -94 -96 -74 -47 -68 -65 -74 47 96 94 74 return
          </CharString>
          <CharString index="257">
            vlineto
            hintmask 01110100
            -107 callgsubr
            57 4 107 2 71 125 47 -6 62 -16 callgsubr
            -94 2 -19 37 137 vvcurveto
            return
          </CharString>
          <CharString index="258">
            rmoveto
            -125 -19 234 callsubr
            604 vlineto
            1 46 50 1 42 hhcurveto
            247 93 -135 -258 -209 -60 -180 -274 hvcurveto
            endchar
          </CharString>
          <CharString index="259">
            rmoveto
            -35 80 -28 116 -45 72 -65 102 -110 36 -141 3 111 37 36 90 37 96 50 130 24 69 45 21 rrcurveto
            -15 vlineto
            return
          </CharString>
          <CharString index="260">
            96 53 94 62 144 hhcurveto
            53 61 -8 -23 35 hvcurveto
            -41 -22 -27 -43 -50 vvcurveto
            -71 60 -60 72 71 60 60 73 50 -27 36 -43 27 vhcurveto
            return
          </CharString>
          <CharString index="261">
            vlineto
            258 55 -133 -166 -190 -86 -109 return
          </CharString>
          <CharString index="262">
            -6 -2 47 hvcurveto
            43 vlineto
            -113 18 callsubr
            return
          </CharString>
          <CharString index="263">
            58 -65 26 -86 19 -90 rrcurveto
            47 hlineto
            return
          </CharString>
          <CharString index="264">
            -61 -52 -41 -69 -58 35 -37 51 -10 return
          </CharString>
          <CharString index="265">
            -16 callgsubr
            -140 return
          </CharString>
          <CharString index="266">
            -5 callgsubr
            29 return
          </CharString>
          <CharString index="267">
            1245 113 callsubr
            341 callsubr
            return
          </CharString>
          <CharString index="268">
            -93 callgsubr
            endchar
          </CharString>
          <CharString index="269">
            -130 -59 -127 -91 -100 vvcurveto
            -125 205 -63 207 397 176 238 182 143 -111 47 -129 vhcurveto
            return
          </CharString>
          <CharString index="270">
            43 969 84 callsubr
            248 262 hstemhm
            158 262 return
          </CharString>
          <CharString index="271">
            1927 43 hstem
            return
          </CharString>
          <CharString index="272">
            -256 822 rmoveto
            115 72 -68 -219 -219 -72 -68 -115 -114 -72 68 219 219 72 68 114 hvcurveto
            return
          </CharString>
          <CharString index="273">
            -74 0 47 1151 47 hstem
            106 967 vstem
            return
          </CharString>
          <CharString index="274">
            -35 0 47 1356 47 hstem
            86 1040 vstem
            return
          </CharString>
          <CharString index="275">
            -6 43 hflex1
            43 vlineto
            96 callgsubr
            return
          </CharString>
          <CharString index="276">
            107 98 106 callgsubr
          </CharString>
          <CharString index="277">
            -264 -2 -111 -6 -75 40 callgsubr
            return
          </CharString>
          <CharString index="278">
            40 0 41 1157 47 hstem
            551 233 callsubr
            vstem
            return
          </CharString>
          <CharString index="279">
            35 432 57 178 111 hstem
            465 137 vstem
            350 return
          </CharString>
          <CharString index="280">
            215 184 return
          </CharString>
          <CharString index="281">
            53 callsubr
            3 45 8 45 18 63 return
          </CharString>
          <CharString index="282">
            28 6 33 21 vvcurveto
            51 -37 41 return
          </CharString>
          <CharString index="283">
            104 vlineto
            229 97 97 168 return
          </CharString>
          <CharString index="284">
            -2 57 189 callgsubr
          </CharString>
          <CharString index="285">
            0 41 1368 -10 callgsubr
            return
          </CharString>
          <CharString index="286">
            hstem
            68 139 387 139 vstem
            446 return
          </CharString>
          <CharString index="287">
            325 11 -21 1022 43 8 -20 return
          </CharString>
          <CharString index="288">
            1407 rmoveto
            51 -639 -51 vlineto
            return
          </CharString>
          <CharString index="289">
            98 233 callgsubr
            return
          </CharString>
          <CharString index="290">
            187 callgsubr
            94 return
          </CharString>
          <CharString index="291">
            -27 234 callsubr
            return
          </CharString>
          <CharString index="292">
            vlineto
            119 296 callsubr
            -641 -83 callgsubr
            2 47 107 6 94 hhcurveto
            return
          </CharString>
          <CharString index="293">
            99 10 96 vhcurveto
            -64 226 callsubr
            endchar
          </CharString>
          <CharString index="294">
            140 -88 92 -59 -129 vvcurveto
            -119 -78 -68 -119 -190 -58 174 209 -22 12 callsubr
            return
          </CharString>
          <CharString index="295">
            5 19 2 19 18 115 -92 85 130 vvcurveto
            149 107 56 117 153 84 -101 -172 vhcurveto
            return
          </CharString>
          <CharString index="296">
            -84 callgsubr
            672 50 callsubr
            endchar
          </CharString>
          <CharString index="297">
            vlineto
            149 27 60 callgsubr
            endchar
          </CharString>
          <CharString index="298">
            21 149 vvcurveto
            return
          </CharString>
          <CharString index="299">
            vhcurveto
            -6 -114 -160 0 -113 hhcurveto
            hintmask 0101100110000000
            -92 -178 0 4 -164 hvcurveto
            hintmask 1001001110000000
            return
          </CharString>
          <CharString index="300">
            176 callsubr
            114 96 -57 -80 56 vhcurveto
            -41 -83 -17 -98 -112 vvcurveto
            endchar
          </CharString>
          <CharString index="301">
            330 vlineto
            119 296 callsubr
            return
          </CharString>
          <CharString index="302">
            69 -84 -82 64 -170 hhcurveto
            endchar
          </CharString>
          <CharString index="303">
            -6 -31 -78 -2 -49 hhcurveto
            endchar
          </CharString>
          <CharString index="304">
            hstem
            -6 1274 vstem
            return
          </CharString>
          <CharString index="305">
            -4 -58 callgsubr
            return
          </CharString>
          <CharString index="306">
            -1319 223 callgsubr
            return
          </CharString>
          <CharString index="307">
            -16 callgsubr
            228 callgsubr
            return
          </CharString>
          <CharString index="308">
            6 -26 191 callsubr
            16 callgsubr
            26 20 return
          </CharString>
          <CharString index="309">
            294 callsubr
            16 callgsubr
            return
          </CharString>
          <CharString index="310">
            310 callsubr
            -112 18 callsubr
            return
          </CharString>
          <CharString index="311">
            vhcurveto
            41 vlineto
            -58 -4 -98 -2 -106 return
          </CharString>
          <CharString index="312">
            534 11 275 callgsubr
            return
          </CharString>
          <CharString index="313">
            41 273 callgsubr
            return
          </CharString>
          <CharString index="314">
            758 rmoveto
            483 -74 -483 -477 -62 477 -481 74 481 475 62 vlineto
            return
          </CharString>
          <CharString index="315">
            37 hstemhm
            121 47 -47 153 332 47 -30 186 -174 182 297 184 return
          </CharString>
          <CharString index="316">
            vlineto
            150 26 return
          </CharString>
          <CharString index="317">
            339 0 41 1224 -20 164 -10 callgsubr
            707 190 vstem
            return
          </CharString>
          <CharString index="318">
            12 -44 -49 6 -52 hhcurveto
            -215 -163 -98 -225 -153 75 -94 115 -45 hvcurveto
            return
          </CharString>
          <CharString index="319">
            rmoveto
            852 -854 -852 vlineto
            41 813 rmoveto
            772 -774 -772 hlineto
            endchar
          </CharString>
          <CharString index="320">
            -29 231 callgsubr
            return
          </CharString>
          <CharString index="321">
            243 callgsubr
            183 217 120 return
          </CharString>
          <CharString index="322">
            43 498 43 hstem
            236 129 vstem
            365 return
          </CharString>
          <CharString index="323">
            192 -129 216 -82 120 return
          </CharString>
          <CharString index="324">
            -61 -52 -41 -70 -57 35 -37 51 -10 return
          </CharString>
          <CharString index="325">
            -29 37 1434 37 return
          </CharString>
          <CharString index="326">
            -99 84 callgsubr
            return
          </CharString>
          <CharString index="327">
            1665 rmoveto
            return
          </CharString>
          <CharString index="328">
            -191 -385 35 403 172 211 37 574 36 -18 -20 65 205 return
          </CharString>
          <CharString index="329">
            1118 rmoveto
            -35 74 -998 -465 998 -465 35 74 -838 391 rlineto
            return
          </CharString>
          <CharString index="330">
            -55 callgsubr
            48 2 return
          </CharString>
          <CharString index="331">
            241 callgsubr
            7 -43 -5 callgsubr
            182 callsubr
            return
          </CharString>
          <CharString index="332">
            88 -53 113 return
          </CharString>
          <CharString index="333">
            98 callgsubr
            27 21 139 6 vhcurveto
            return
          </CharString>
          <CharString index="334">
            -48 0 43 975 65 455 37 hstem
            197 184 453 184 vstem
            return
          </CharString>
          <CharString index="335">
            hflex1
            328 114 170 152 167 -114 125 -297 hvcurveto
            return
          </CharString>
          <CharString index="336">
            0 43 1497 37 hstem
            201 184 return
          </CharString>
          <CharString index="337">
            43 vlineto
            -135 -82 35 133 hvcurveto
            801 return
          </CharString>
          <CharString index="338">
            -78 0 41 1161 43 return
          </CharString>
          <CharString index="339">
            -146 20 -80 60 -61 vhcurveto
            return
          </CharString>
          <CharString index="340">
            190 426 41 return
          </CharString>
          <CharString index="341">
            27 149 hvcurveto
            return
          </CharString>
          <CharString index="342">
            rmoveto
            71 60 59 72 72 -60 59 -71 -72 -59 -59 -72 -72 59 -59 72 hvcurveto
            return
          </CharString>
          <CharString index="343">
            147 0 37 1171 37 -10 callsubr
            639 205 vstem
            return
          </CharString>
          <CharString index="344">
            266 218 callsubr
            return
          </CharString>
          <CharString index="345">
            26 27 0 -6 24 hvcurveto
            2 51 return
          </CharString>
          <CharString index="346">
            -70 -90 2 -49 hflex1
            -41 vlineto
            return
          </CharString>
          <CharString index="347">
            -65 130 callsubr
            65 return
          </CharString>
          <CharString index="348">
            141 -122 -141 -123 return
          </CharString>
          <CharString index="349">
            2 -78 hflex1
            -41 vlineto
            return
          </CharString>
          <CharString index="350">
            221 393 222 return
          </CharString>
          <CharString index="351">
            191 -43 47 -39 47 return
          </CharString>
          <CharString index="352">
            15 20 callgsubr
            return
          </CharString>
          <CharString index="353">
            hlineto
            217 31 return
          </CharString>
          <CharString index="354">
            262 hstemhm
            217 262 -227 190 269 callsubr
            348 return
          </CharString>
          <CharString index="355">
            614 rmoveto
            248 50 callsubr
            43 vlineto
            -47 -2 return
          </CharString>
          <CharString index="356">
            333 callsubr
            198 17 92 39 70 vhcurveto
            return
          </CharString>
          <CharString index="357">
            43 hstem
            72 329 callsubr
            vstem
            268 return
          </CharString>
          <CharString index="358">
            111 hstem
            215 133 vstem
            625 return
          </CharString>
          <CharString index="359">
            hstem
            -193 199 230 190 vstem
            return
          </CharString>
          <CharString index="360">
            rmoveto
            -72 -59 -59 -72 return
          </CharString>
          <CharString index="361">
            rmoveto
            -48 -38 -24 -30 return
          </CharString>
          <CharString index="362">
            12 callsubr
            -74 return
          </CharString>
          <CharString index="363">
            -46 callsubr
            41 vlineto
            hintmask 11011010
            -4 -45 -76 -2 -69 hhcurveto
            endchar
          </CharString>
          <CharString index="364">
            1346 rmoveto
            -51 -10 -60 -33 hvcurveto
            45 -41 -262 -28 49 hvcurveto
            return
          </CharString>
          <CharString index="365">
            631 862 rmoveto
            -34 240 callgsubr
            149 return
          </CharString>
          <CharString index="366">
            109 callgsubr
            -98 17 callgsubr
            return
          </CharString>
          <CharString index="367">
            rmoveto
            82 -928 -82 vlineto
            endchar
          </CharString>
          <CharString index="368">
            1479 rmoveto
            return
          </CharString>
          <CharString index="369">
            rmoveto
            241 callgsubr
            7 -43 -5 callgsubr
            return
          </CharString>
          <CharString index="370">
            69 -90 -107 64 -180 hhcurveto
            -381 -270 -308 -458 return
          </CharString>
          <CharString index="371">
            209 callsubr
            20 140 7 vhcurveto
            41 vlineto
            -64 -5 -102 -2 return
          </CharString>
          <CharString index="372">
            37 346 51 -51 62 817 47 return
          </CharString>
          <CharString index="373">
            175 callsubr
            -55 return
          </CharString>
          <CharString index="374">
            121 123 -4 45 hhcurveto
            return
          </CharString>
          <CharString index="375">
            192 callgsubr
            141 41 return
          </CharString>
          <CharString index="376">
            hintmask 00000000
            hintmask 11110000
            return
          </CharString>
          <CharString index="377">
            rmoveto
            62 -1026 -62 vlineto
            return
          </CharString>
          <CharString index="378">
            rmoveto
            100 -268 111 return
          </CharString>
          <CharString index="379">
            -6 26 -48 callsubr
            return
          </CharString>
          <CharString index="380">
            158 -141 123 return
          </CharString>
          <CharString index="381">
            vlineto
            217 119 return
          </CharString>
          <CharString index="382">
            168 147 19 return
          </CharString>
          <CharString index="383">
            -21 1419 41 return
          </CharString>
          <CharString index="384">
            rmoveto
            -72 -59 -55 -76 return
          </CharString>
          <CharString index="385">
            1245 rmoveto
            return
          </CharString>
          <CharString index="386">
            1602 rmoveto
            return
          </CharString>
          <CharString index="387">
            rrcurveto
            35 vlineto
            -207 -96 -115 -111 -61 -164 rrcurveto
            return
          </CharString>
          <CharString index="388">
            -51 -11 -35 -37 -57 vvcurveto
            -70 51 -41 62 61 47 41 74 return
          </CharString>
          <CharString index="389">
            hlineto
            256 31 -98 -285 29 20 callgsubr
            -4 43 -2 return
          </CharString>
          <CharString index="390">
            rmoveto
            82 -1524 -82 vlineto
            endchar
          </CharString>
          <CharString index="391">
            -184 -72 hvcurveto
            return
          </CharString>
          <CharString index="392">
            262 rmoveto
            57 2 54 104 callsubr
            -271 return
          </CharString>
          <CharString index="393">
            hflex1
            -41 vlineto
            99 callgsubr
            141 callgsubr
            -80 return
          </CharString>
          <CharString index="394">
            -19 -18 8 21 -33 hvcurveto
            37 -55 -60 39 -135 hhcurveto
            return
          </CharString>
          <CharString index="395">
            rrcurveto
            35 hlineto
            94 207 135 118 195 58 return
          </CharString>
          <CharString index="396">
            -7 callsubr
            41 vlineto
            return
          </CharString>
          <CharString index="397">
            -62 164 -114 111 -207 96 rrcurveto
            -35 vlineto
            return
          </CharString>
          <CharString index="398">
            -103 31 47 -61 123 hhcurveto
            38 43 6 8 45 hvcurveto
            return
          </CharString>
          <CharString index="399">
            -18 rcurveline
            162 172 98 59 return
          </CharString>
          <CharString index="400">
            hstemhm
            98 199 510 184 return
          </CharString>
          <CharString index="401">
            hlineto
            104 callgsubr
            return
          </CharString>
          <CharString index="402">
            99 callgsubr
            -48 callsubr
            return
          </CharString>
          <CharString index="403">
            37 11 callsubr
            return
          </CharString>
          <CharString index="404" raw="1">
            ae66be81 1e0b  
          </CharString>
          <CharString index="405">
            2 123 111 return
          </CharString>
          <CharString index="406">
            -4 -41 -43 -2 return
          </CharString>
          <CharString index="407">
            1765 rmoveto
            return
          </CharString>
          <CharString index="408">
            hflex1
            43 vlineto
            return
          </CharString>
          <CharString index="409">
            vlineto
            315 callgsubr
            -112 17 callgsubr
            47 2 return
          </CharString>
          <CharString index="410">
            1083 rmoveto
            -140 -119 -79 -140 -61 hvcurveto
            return
          </CharString>
          <CharString index="411">
            rrcurveto
            27 266 callsubr
            -60 return
          </CharString>
          <CharString index="412">
            -429 1262 380 hstem
            51 721 vstem
            return
          </CharString>
          <CharString index="413">
            vlineto
            -107 callgsubr
            6 return
          </CharString>
          <CharString index="414">
            -629 -385 39 940 37 932 39 hstem
            return
          </CharString>
          <CharString index="415">
            -29 37 604 37 232 37 604 37 hstem
            return
          </CharString>
          <CharString index="416">
            -158 -41 158 -164 -158 -41 158 return
          </CharString>
          <CharString index="417">
            -6 47 301 callsubr
            return
          </CharString>
          <CharString index="418">
            150 27 20 139 return
          </CharString>
          <CharString index="419">
            47 hstemhm
            551 190 return
          </CharString>
          <CharString index="420">
            184 510 199 return
          </CharString>
          <CharString index="421">
            199 532 return
          </CharString>
          <CharString index="422">
            -233 -336 return
          </CharString>
          <CharString index="423">
            -149 -26 -21 return
          </CharString>
          <CharString index="424">
            rlineto
            -4 -31 -2 -31 -29 vvcurveto
            -103 30 -81 99 return
          </CharString>
          <CharString index="425">
            25 24 -8 vhcurveto
            59 19 29 39 49 vvcurveto
            63 return
          </CharString>
          <CharString index="426">
            -195 57 -135 119 -94 207 rrcurveto
            return
          </CharString>
          <CharString index="427">
            vlineto
            252 callgsubr
            return
          </CharString>
          <CharString index="428">
            -20 127 callsubr
            805 47 -24 39 return
          </CharString>
          <CharString index="429">
            14 callgsubr
            4 return
          </CharString>
          <CharString index="430">
            hlineto
            25 41 rlineto
            -327 hlineto
            -1 23 0 24 return
          </CharString>
          <CharString index="431">
            141 vlineto
            149 27 60 callgsubr
            return
          </CharString>
          <CharString index="432">
            270 rmoveto
            -155 -72 -119 -56 -106 hhcurveto
            return
          </CharString>
          <CharString index="433">
            43 vlineto
            -83 8 -31 35 -31 70 rrcurveto
            endchar
          </CharString>
          <CharString index="434">
            217 238 hstemhm
            return
          </CharString>
          <CharString index="435">
            12 callsubr
            -256 return
          </CharString>
          <CharString index="436">
            57 281 57 return
          </CharString>
          <CharString index="437">
            47 1362 -10 callgsubr
            return
          </CharString>
          <CharString index="438">
            -20 hstemhm
            0 1571 -176 176 return
          </CharString>
          <CharString index="439">
            96 63 63 vhcurveto
            33 31 51 31 80 hhcurveto
            return
          </CharString>
          <CharString index="440">
            217 callgsubr
            hlineto
            return
          </CharString>
          <CharString index="441">
            37 -56 72 63 49 43 64 65 -55 33 return
          </CharString>
          <CharString index="442">
            315 callsubr
            169 callgsubr
            return
          </CharString>
          <CharString index="443">
            hhcurveto
            -4 -4 0 2 -4 hvcurveto
            29 17 26 return
          </CharString>
          <CharString index="444">
            584 hstem
            160 583 vstem
            451 return
          </CharString>
          <CharString index="445">
            41 -19 callsubr
            666 190 return
          </CharString>
          <CharString index="446">
            80 vlineto
            311 callsubr
            6 vhcurveto
            return
          </CharString>
          <CharString index="447">
            -6 62 hflex1
            return
          </CharString>
          <CharString index="448">
            -18 -152 vvcurveto
            return
          </CharString>
          <CharString index="449">
            4 115 2 return
          </CharString>
          <CharString index="450">
            hstemhm
            -14 211 return
          </CharString>
        <CharString name=".notdef">
          -101 0 61 1459 61 hstem
          123 74 757 74 vstem
          1028 hmoveto
          1581 -905 -1581 vlineto
          74 1520 rmoveto
          757 -1459 -757 hlineto
          endchar
        </CharString>
        <CharString name="A">
          63 callgsubr
          662 1460 118 callsubr
          hintmask 11110000
          126 callgsubr
          rrcurveto
          -103 callsubr
        </CharString>
        <CharString name="AE">
          497 0 41 -41 75 callgsubr
          hstemhm
          -20 181 695 191 hintmask 01110010
          1636 285 callsubr
          -22 -10 -92 -201 hhcurveto
          -150 hlineto
          -139 -26 21 149 hvcurveto
          492 149 vlineto
          141 2 -119 -111 13 245 callgsubr
          135 -3 56 59 25 -1 24 30 vvcurveto
          41 2 52 6 78 12 callsubr
          -82 -13 6 -147 -143 hhcurveto
          -149 483 hlineto
          149 26 21 139 vhcurveto
          129 hlineto
          168 25 -80 -242 20 hvcurveto
          48 hlineto
          -5 31 -2 47 49 vvcurveto
          47 4 99 11 96 vhcurveto
          -6 -115 -160 0 -112 hhcurveto
          -63 -105 0 1 -113 hvcurveto
          82 136 rlineto
          -49 hlineto
          -82 -135 -69 1 -71 1 -63 2 rlinecurve
          hintmask 10101110
          -41 vlineto
          85 -4 43 -9 21 -40 -718 -1184 rcurveline
          -58 -96 -40 -33 -43 -2 rrcurveto
          hintmask 01110110
          -41 vlineto
          34 4 56 2 47 73 72 -2 41 hflex1
          hintmask 10110110
          41 vlineto
          -93 4 -49 19 49 vvcurveto
          25 13 33 25 42 vhcurveto
          299 496 rlineto
          358 -492 hlineto
          hintmask 01110010
          257 callgsubr
          125 176 0 127 hflex1
          -11 104 -4 107 51 vvcurveto
          -780 488 rmoveto
          -333 hlineto
          330 548 rlineto
          2 -18 1 -22 -25 vvcurveto
          endchar
        </CharString>
        <CharString name="Aacute">
          63 callgsubr
          934 -52 callsubr
          -272 -303 118 callsubr
          hintmask 11110000
          126 callgsubr
          rrcurveto
          -103 callsubr
        </CharString>
        <CharString name="Abreve">
          91 callgsubr
          162 127 343 callsubr
          -211 1317 hintmask 11110100
          633 279 callsubr
          137 callsubr
          -24 23 rlineto
          -11 callsubr
          29 -142 118 callsubr
          hintmask 11111000
          126 callgsubr
          rrcurveto
          -103 callsubr
        </CharString>
        <CharString name="Acircumflex">
          63 callgsubr
          592 3 callgsubr
          70 -260 118 callsubr
          hintmask 11110000
          126 callgsubr
          rrcurveto
          -103 callsubr
        </CharString>
        <CharString name="Adieresis">
          91 callgsubr
          141 238 343 callsubr
          100 111 callgsubr
          hintmask 11111110
          416 -13 callsubr
          -188 -121 140 callsubr
          126 callgsubr
          rlinecurve
          -103 callsubr
        </CharString>
        <CharString name="Agrave">
          63 callgsubr
          344 1763 rmoveto
          225 callsubr
          -22 211 -107 -21 callsubr
          -80 callsubr
          318 -303 118 callsubr
          hintmask 11110000
          126 callgsubr
          rrcurveto
          -103 callsubr
        </CharString>
        <CharString name="Amacron">
          91 callgsubr
          237 52 343 callsubr
          -211 1317 hintmask 11110100
          993 158 callgsubr
          390 -217 118 callsubr
          hintmask 11111000
          126 callgsubr
          rrcurveto
          -103 callsubr
        </CharString>
        <CharString name="Aogonek">
          38 277 callgsubr
          41 508 41 870 -20 hstem
          -14 211 720 150 vstem
          1280 -219 rmoveto
          38 callsubr
          68 46 87 152 44 hvcurveto
          38 -2 rlineto
          41 vlineto
          -43 2 -58 25 -41 104 -499 1288 rcurveline
          127 callgsubr
          126 callgsubr
          rlinecurve
          -89 callsubr
          4 58 98 2 106 hhcurveto
          37 39 0 -1 37 hvcurveto
          -178 -59 -101 -92 -106 9 callsubr
          -509 836 rmoveto
          -464 hlineto
          235 611 rlineto
          endchar
        </CharString>
        <CharString name="Aring">
          91 callgsubr
          80 43 288 43 hstem
          -14 211 240 329 callsubr
          vstem
          633 1520 rmoveto
          107 92 71 117 115 -92 71 -107 -104 -92 -71 -115 -117 92 -71 104 hvcurveto
          331 vmoveto
          68 74 -51 149 callsubr
          51 65 hvcurveto
          29 -391 140 callsubr
          126 callgsubr
          rlinecurve
          -103 callsubr
        </CharString>
        <CharString name="Atilde">
          91 callgsubr
          141 191 callgsubr
          343 callsubr
          -211 1317 hintmask 11111010
          398 1739 rmoveto
          141 105 -158 151 hhcurveto
          115 100 82 135 12 hvcurveto
          -30 6 rlineto
          -88 -25 -47 -26 -55 -142 -104 157 -152 hhcurveto
          -114 -101 -82 -135 -12 hvcurveto
          31 -6 rlineto
          88 24 46 27 57 hhcurveto
          264 -279 118 callsubr
          hintmask 11111100
          126 callgsubr
          rrcurveto
          -103 callsubr
        </CharString>
        <CharString name="B">
          -30 callsubr
        </CharString>
        <CharString name="C">
          13 callgsubr
          760 1479 -100 callgsubr
        </CharString>
        <CharString name="CR">
          -1252 endchar
        </CharString>
        <CharString name="Cacute">
          13 callgsubr
          964 1896 -92 callsubr
          -204 -417 -100 callgsubr
        </CharString>
        <CharString name="Cacute.loclPLK">
          13 callgsubr
          853 -46 callgsubr
          -93 -434 -100 callgsubr
        </CharString>
        <CharString name="Ccaron">
          13 callgsubr
          1130 -58 callsubr
          -381 -389 -100 callgsubr
        </CharString>
        <CharString name="Ccedilla">
          157 147 callgsubr
          104 41 -40 40 9 -21 1442 37 -29 -20 hstemhm
          165 callgsubr
          537 131 240 47 -39 39 -39 47 hintmask 1110010101000000
          1221 492 rmoveto
          -21 -166 -14 -78 -60 -80 rrcurveto
          -111 -77 -150 -45 -123 hhcurveto
          -264 -199 252 457 444 176 277 267 141 135 -49 -111 86 hvcurveto
          58 -74 16 -55 29 -174 rrcurveto
          47 hlineto
          hintmask 1110001101000000
          124 callsubr
          hintmask 1110001100010000
          -47 hlineto
          -84 -7 -17 -38 -28 hhcurveto
          -12 -13 6 12 -15 hvcurveto
          hintmask 1101010111000000
          263 callsubr
          -454 243 -270 368 -17 hvcurveto
          -56 -169 rlineto
          -68 callgsubr
          hintmask 1110010100100000
          41 118 165 4 98 60 98 69 rlinecurve
          11 17 14 6 11 hhcurveto
          hintmask 1100110100100000
          29 14 -37 -84 7 20 callgsubr
          -6 104 -2 140 248 vvcurveto
          endchar
        </CharString>
        <CharString name="Ccircumflex">
          13 callgsubr
          727 1876 -76 callsubr
          -4 -397 -100 callgsubr
        </CharString>
        <CharString name="Cdotaccent">
          157 -29 41 9 -21 1442 37 -29 -20 151 262 hstemhm
          165 callgsubr
          328 262 318 47 -39 39 -39 47 hintmask 1010111100000000
          772 1843 24 callsubr
          -12 -364 rmoveto
          -55 callsubr
          hvcurveto
          hintmask 1010111010000000
          176 102 62 71 101 hvcurveto
          11 17 14 6 11 hhcurveto
          hintmask 0110111010000000
          29 14 -37 -84 7 20 callgsubr
          -6 104 -2 140 248 vvcurveto
          hintmask 1010111100000000
          -47 hlineto
          -21 -166 -14 -78 -60 -80 rrcurveto
          -111 -77 -150 -45 -123 hhcurveto
          -264 -199 252 457 444 176 277 267 141 135 -49 -111 86 hvcurveto
          58 -74 16 -55 29 -174 rrcurveto
          47 hlineto
          hintmask 1001111100000000
          124 callsubr
          hintmask 1001111001000000
          -47 hlineto
          -84 -7 -17 -38 -28 hhcurveto
          -12 -13 6 12 -15 hvcurveto
          hintmask 1010111100000000
          69 -90 -107 64 -180 hhcurveto
          endchar
        </CharString>
        <CharString name="D">
          235 callgsubr
          645 1450 22 callsubr
        </CharString>
        <CharString name="Dcaron">
          235 callgsubr
          1030 -58 callsubr
          -396 -418 22 callsubr
        </CharString>
        <CharString name="Dcroat">
          -6 callsubr
        </CharString>
        <CharString name="Delta">
          -220 0 61 1418 -20 hstem
          57 906 vstem
          567 261 callsubr
          -32 hlineto
          -478 -1479 rlineto
          152 4 151 2 152 150 151 -2 150 hflex1
          -844 61 rmoveto
          336 1049 286 -1049 rlineto
          endchar
        </CharString>
        <CharString name="E">
          49 callsubr
          hstemhm
          252 274 callgsubr
          1135 262 223 callgsubr
          -106 callgsubr
          hintmask 11011000
          -96 callsubr
          hintmask 11101000
          97 callgsubr
          endchar
        </CharString>
        <CharString name="Eacute">
          49 callsubr
          hstemhm
          252 274 callgsubr
          928 -52 callsubr
          207 -1501 223 callgsubr
          -106 callgsubr
          hintmask 11011000
          -96 callsubr
          hintmask 11101000
          97 callgsubr
          endchar
        </CharString>
        <CharString name="Ebreve">
          49 callsubr
          152 127 -19 callsubr
          hintmask 11101100
          627 279 callsubr
          137 callsubr
          -24 23 rlineto
          -11 callsubr
          508 -1340 223 callgsubr
          -106 callgsubr
          hintmask 11011100
          -96 callsubr
          hintmask 11101100
          97 callgsubr
          endchar
        </CharString>
        <CharString name="Ecaron">
          49 callsubr
          hstemhm
          252 274 callgsubr
          640 121 callgsubr
          532 -1335 223 callgsubr
          -106 callgsubr
          hintmask 11011000
          -96 callsubr
          hintmask 11101000
          97 callgsubr
          endchar
        </CharString>
        <CharString name="Ecircumflex">
          49 callsubr
          hstemhm
          252 274 callgsubr
          586 3 callgsubr
          549 -1458 223 callgsubr
          -106 callgsubr
          hintmask 11011000
          -96 callsubr
          hintmask 11101000
          97 callgsubr
          endchar
        </CharString>
        <CharString name="Edieresis">
          49 callsubr
          131 238 -19 callsubr
          -151 111 callgsubr
          hintmask 11101011
          410 -13 callsubr
          291 199 callsubr
          hintmask 11100100
          -106 callgsubr
          hintmask 11010100
          -96 callsubr
          hintmask 11101011
          97 callgsubr
          endchar
        </CharString>
        <CharString name="Edotaccent">
          49 callsubr
          131 262 -19 callsubr
          81 262 hintmask 11101110
          654 1581 235 callsubr
          481 199 callsubr
          -106 callgsubr
          hintmask 11011110
          -96 callsubr
          hintmask 11101110
          97 callgsubr
          endchar
        </CharString>
        <CharString name="Egrave">
          49 callsubr
          hstemhm
          252 274 callgsubr
          338 1763 rmoveto
          225 callsubr
          -22 211 -107 -21 callsubr
          -80 callsubr
          797 -1501 223 callgsubr
          -106 callgsubr
          hintmask 11011000
          -96 callsubr
          hintmask 11101000
          97 callgsubr
          endchar
        </CharString>
        <CharString name="Emacron">
          49 callsubr
          227 52 -19 callsubr
          hintmask 11101100
          987 158 callgsubr
          869 -1415 223 callgsubr
          -106 callgsubr
          hintmask 11011100
          -96 callsubr
          hintmask 11101100
          97 callgsubr
          endchar
        </CharString>
        <CharString name="Eng">
          192 -385 35 350 41 -24 -21 1413 316 callgsubr
          47 432 199 229 47 hintmask 11011010
          1182 1444 rmoveto
          -70 -70 2 4 -49 hvcurveto
          253 callgsubr
          -856 vlineto
          -694 1073 rlineto
          -51 -4 -70 -2 -68 26 callgsubr
          -1016 vlineto
          -149 -27 -21 15 callgsubr
          69 70 70 145 callsubr
          1102 vlineto
          hintmask 10111110
          856 -1323 rlineto
          -215 -16 -70 -131 147 callsubr
          1047 vlineto
          149 27 21 256 callsubr
        </CharString>
        <CharString name="Eogonek">
          -5 277 callgsubr
          47 -41 41 86 callgsubr
          -19 callsubr
          346 150 hintmask 11011011
          1151 -219 rmoveto
          38 callsubr
          67 45 86 148 45 hvcurveto
          18 -1 rlineto
          2 0 2 -1 2 vhcurveto
          -9 102 -4 104 50 vvcurveto
          -31 callgsubr
          -106 callgsubr
          hintmask 11010111
          -41 vlineto
          295 callsubr
          -1016 306 callsubr
          201 270 0 123 hhcurveto
          hintmask 10111011
          110 146 0 -3 126 hvcurveto
          -175 -59 -99 -91 -105 9 callsubr
          endchar
        </CharString>
        <CharString name="Eth">
          -6 callsubr
        </CharString>
        <CharString name="Euro">
          -56 -29 35 602 343 callgsubr
          590 35 hstem
          215 205 444 221 vstem
          977 299 rmoveto
          -62 -51 -41 -70 -57 35 -37 51 -10 hvcurveto
          -41 -20 -84 -37 -78 hhcurveto
          -206 -120 216 386 -19 hvcurveto
          300 323 callsubr
          25 vvcurveto
          32 1 30 1 30 vhcurveto
          418 hlineto
          22 41 rlineto
          -438 hlineto
          366 23 121 224 202 hhcurveto
          78 84 -37 -41 20 hvcurveto
          -51 -10 -35 -37 -57 vvcurveto
          -70 52 -41 61 63 45 45 64 57 -40 49 -56 41 vhcurveto
          31 -43 -71 41 -113 hhcurveto
          -286 -213 -246 -379 -42 hvcurveto
          -155 -41 151 hlineto
          -3 -32 -1 -34 -34 vvcurveto
          -22 0 -21 1 -21 vhcurveto
          -148 -41 151 hlineto
          -404 30 210 -233 303 hhcurveto
          112 72 41 31 43 hvcurveto
          55 41 41 49 57 vvcurveto
          64 -45 45 -63 vhcurveto
          endchar
        </CharString>
        <CharString name="Euro.smcp">
          -54 -29 37 92 189 217 343 callgsubr
          204 189 94 35 hstemhm
          219 205 473 190 -188 191 hintmask 0000000000000000
          hintmask 1111011100000000
          993 289 rmoveto
          -49 -47 -33 -57 -47 35 -50 59 -2 hvcurveto
          -73 -37 -102 -19 -78 hhcurveto
          -203 -121 175 323 -22 hvcurveto
          299 323 callsubr
          24 vvcurveto
          32 1 31 2 30 vhcurveto
          417 hlineto
          22 41 rlineto
          -436 hlineto
          304 26 121 183 197 hhcurveto
          hintmask 1011111010000000
          88 99 -27 -67 32 hvcurveto
          -59 -2 -35 -49 -47 vvcurveto
          -58 47 -33 49 56 39 43 60 57 -37 53 -64 45 vhcurveto
          43 -61 -84 17 -76 hhcurveto
          -279 -211 -204 -318 -49 hvcurveto
          -157 -41 152 hlineto
          -3 -33 -2 -33 -35 vvcurveto
          -21 1 -21 1 -21 vhcurveto
          -149 -41 152 hlineto
          -342 35 208 -193 299 hhcurveto
          hintmask 1011011100000000
          76 82 17 43 63 hvcurveto
          66 45 34 53 57 vvcurveto
          hintmask 1111011100000000
          60 -38 43 -56 vhcurveto
          endchar
        </CharString>
        <CharString name="F">
          -87 0 41 647 41 674 47 -41 41 -19 callsubr
          611 41 hintmask 11101100
          1108 1450 rmoveto
          -17 callsubr
          hintmask 11011100
          -41 vlineto
          295 callsubr
          -1016 -66 callgsubr
          471 150 vlineto
          178 2 -139 -131 16 hvcurveto
          48 hlineto
          -11 155 -2 68 68 30 -1 30 37 vvcurveto
          48 1 59 6 86 12 callsubr
          -98 -16 4 -172 -178 hhcurveto
          -150 504 hlineto
          hintmask 11101100
          149 27 21 139 vhcurveto
          129 hlineto
          256 31 139 callsubr
        </CharString>
        <CharString name="G">
          114 callgsubr
          127 callsubr
          908 47 -45 41 hintmask 10110110
          770 1479 -70 callgsubr
        </CharString>
        <CharString name="Gacute">
          114 callgsubr
          127 callsubr
          908 47 -45 41 hintmask 10110110
          958 1896 -92 callsubr
          -188 -417 -70 callgsubr
        </CharString>
        <CharString name="Gbreve">
          114 callgsubr
          172 127 127 callsubr
          908 47 -45 41 hintmask 1011011100000000
          1122 1862 rmoveto
          -11 callsubr
          137 callsubr
          -376 -360 23 callsubr
          hintmask 0111011010000000
          -56 callsubr
          hintmask 1011011010000000
          -22 callgsubr
          hintmask 1010111100000000
          -9 callgsubr
          hintmask 1011011100000000
          69 -97 -94 64 -178 hhcurveto
          endchar
        </CharString>
        <CharString name="Gcircumflex">
          114 callgsubr
          127 callsubr
          908 47 -45 41 hintmask 10110110
          721 1876 -76 callsubr
          12 -397 -70 callgsubr
        </CharString>
        <CharString name="Gcommaaccent">
          188 192 callgsubr
          112 149 callgsubr
          127 callsubr
          523 55 330 47 -45 41 hintmask 0101101110000000
          770 1479 23 callsubr
          hintmask 0011101101000000
          -56 callsubr
          hintmask 0101101101000000
          -22 callgsubr
          hintmask 0101011110000000
          -9 callgsubr
          hintmask 0101101110000000
          69 -97 -94 64 -178 hhcurveto
          hintmask 1101101110000000
          -10 -1620 -57 callsubr
        </CharString>
        <CharString name="Gdotaccent">
          114 callgsubr
          151 262 127 callsubr
          320 262 326 47 -45 41 hintmask 1011011110000000
          766 1843 24 callsubr
          4 -364 23 callsubr
          hintmask 0111011101000000
          -56 callsubr
          hintmask 1011011101000000
          -22 callgsubr
          hintmask 1010111110000000
          -9 callgsubr
          hintmask 1011011110000000
          69 -97 -94 64 -178 hhcurveto
          endchar
        </CharString>
        <CharString name="H">
          298 299 callgsubr
          659 123 callsubr
          97 callsubr
          -61 callgsubr
          64 4 102 2 94 107 98 -2 57 -16 callgsubr
          -139 6 -66 callsubr
          vvcurveto
          -26 callgsubr
          endchar
        </CharString>
        <CharString name="Hbar">
          298 299 callgsubr
          301 41 317 123 callsubr
          97 callsubr
          -141 -666 141 vlineto
          -67 callsubr
          -141 -166 -41 166 -834 -102 callsubr
          492 666 -492 -62 callgsubr
          834 166 41 -166 324 callsubr
          -356 -358 rmoveto
          -301 -666 301 vlineto
          endchar
        </CharString>
        <CharString name="Hcircumflex">
          298 299 callgsubr
          659 123 callsubr
          762 1876 -76 callsubr
          665 -426 34 callsubr
          -61 callgsubr
          64 4 102 2 94 107 98 -2 57 -16 callgsubr
          -139 6 -66 callsubr
          vvcurveto
          -26 callgsubr
          endchar
        </CharString>
        <CharString name="I">
          303 callgsubr
          608 1450 rmoveto
          -63 -4 -103 -2 -94 -106 -99 2 -57 hflex1
          -41 vlineto
          -87 callgsubr
          endchar
        </CharString>
        <CharString name="IJ">
          73 -385 39 346 41 1368 41 -19 callsubr
          -92 221 326 190 hintmask 11110100
          608 1450 rmoveto
          -63 -4 -103 -2 -94 -106 -99 2 -57 hflex1
          -41 vlineto
          -87 callgsubr
          645 41 43 callgsubr
          hintmask 11101100
          -43 callsubr
        </CharString>
        <CharString name="Iacute">
          303 callgsubr
          567 1896 -92 callsubr
          41 -446 rmoveto
          -63 -4 -103 -2 -94 -106 -99 2 -57 hflex1
          -41 vlineto
          -87 callgsubr
          endchar
        </CharString>
        <CharString name="Ibreve">
          0 41 1368 41 152 127 273 callgsubr
          731 1862 rmoveto
          -11 callsubr
          137 callsubr
          -147 -389 rmoveto
          -63 -4 -103 -2 -94 -106 -99 2 -57 hflex1
          -41 vlineto
          -87 callgsubr
          endchar
        </CharString>
        <CharString name="Icircumflex">
          303 callgsubr
          330 1876 -76 callsubr
          241 -426 rmoveto
          -63 -4 -103 -2 -94 -106 -99 2 -57 hflex1
          -41 vlineto
          -87 callgsubr
          endchar
        </CharString>
        <CharString name="Idieresis">
          0 41 1368 41 131 107 callsubr
          -12 callsubr
          43 -369 rmoveto
          -63 -4 -103 -2 -94 -106 -99 2 -57 hflex1
          -41 vlineto
          hintmask 11001000
          -87 callgsubr
          endchar
        </CharString>
        <CharString name="Idotaccent">
          0 41 1368 41 252 247 callsubr
          1964 rmoveto
          2 callgsubr
          260 -514 rmoveto
          -63 -4 -103 -2 -94 -106 -99 2 -57 hflex1
          -41 vlineto
          hintmask 11001000
          -87 callgsubr
          endchar
        </CharString>
        <CharString name="Igrave">
          303 callgsubr
          141 1896 rmoveto
          -80 callsubr
          225 callsubr
          -22 211 -107 -21 callsubr
          467 -446 rmoveto
          -63 -4 -103 -2 -94 -106 -99 2 -57 hflex1
          -41 vlineto
          -87 callgsubr
          endchar
        </CharString>
        <CharString name="Imacron">
          0 41 1368 41 227 52 273 callgsubr
          708 158 callgsubr
          621 -227 rmoveto
          -63 -4 -103 -2 -94 -106 -99 2 -57 hflex1
          -41 vlineto
          -87 callgsubr
          endchar
        </CharString>
        <CharString name="Iogonek">
          277 callgsubr
          41 1368 100 callgsubr
          1016 vlineto
          -67 callgsubr
          4 57 99 2 106 hhcurveto
          59 62 -1 -1 54 hvcurveto
          hintmask 11110000
          -176 -59 -100 -91 -106 9 callsubr
          endchar
        </CharString>
        <CharString name="Itilde">
          0 41 1368 41 131 109 49 108 273 callgsubr
          182 -40 callgsubr
          426 -397 rmoveto
          -63 -4 -103 -2 -94 -106 -99 2 -57 hflex1
          -41 vlineto
          -87 callgsubr
          endchar
        </CharString>
        <CharString name="J">
          148 callgsubr
          596 1450 43 callgsubr
          -43 callsubr
        </CharString>
        <CharString name="Jcircumflex">
          148 callgsubr
          318 1876 -76 callsubr
          241 -426 43 callgsubr
          -43 callsubr
        </CharString>
        <CharString name="K">
          89 0 41 692 41 635 41 hstem
          252 190 -23 callgsubr
          endchar
        </CharString>
        <CharString name="Kcommaaccent">
          89 268 callsubr
          692 41 635 -10 callgsubr
          333 55 -23 callgsubr
          -462 -307 -57 callsubr
        </CharString>
        <CharString name="L">
          -48 0 330 callsubr
          vstem
          608 1450 35 callsubr
        </CharString>
        <CharString name="Lacute">
          -48 0 330 callsubr
          vstem
          567 1896 -92 callsubr
          41 -446 35 callsubr
        </CharString>
        <CharString name="Lcaron">
          -48 0 47 1362 41 12 -20 -19 callsubr
          299 166 hintmask 00000000
          hintmask 10111000
          897 1462 rmoveto
          hintmask 11011000
          -10 -40 -39 -6 -54 hhcurveto
          -24 -28 1 3 -32 hvcurveto
          -43 vlineto
          51 10 -29 -53 -41 -8 -88 -33 -209 hvcurveto
          29 -8 rlineto
          hintmask 10111000
          264 callgsubr
          hintmask 11010000
          -289 -12 35 callsubr
        </CharString>
        <CharString name="Lcommaaccent">
          -48 192 callgsubr
          141 330 callsubr
          304 55 vstem
          608 1450 -79 callgsubr
          60 -1550 -57 callsubr
        </CharString>
        <CharString name="Ldot">
          16 0 330 callsubr
          508 262 vstem
          608 1450 -79 callgsubr
          473 -549 rmoveto
          107 callgsubr
        </CharString>
        <CharString name="Lslash">
          -48 0 330 callsubr
          vstem
          1135 262 rmoveto
          66 2 159 callgsubr
          -285 -29 -51 -98 -256 hhcurveto
          -150 238 callgsubr
          399 vlineto
          527 306 rlineto
          47 vlineto
          -527 -306 rlineto
          570 vlineto
          -67 callsubr
          -660 vlineto
          -166 -96 rlineto
          -47 vlineto
          166 96 rlineto
          -309 -83 callsubr
          97 callgsubr
          endchar
        </CharString>
        <CharString name="M">
          -18 callgsubr
        </CharString>
        <CharString name="N">
          194 0 102 callsubr
          860 47 hintmask 10111000
          1372 1450 -86 callsubr
          hintmask 01111000
          49 callgsubr
          endchar
        </CharString>
        <CharString name="NULL">
          -1252 endchar
        </CharString>
        <CharString name="Nacute">
          194 0 102 callsubr
          860 47 hintmask 10111000
          985 1896 -92 callsubr
          387 -446 -86 callsubr
          hintmask 01111000
          49 callgsubr
          endchar
        </CharString>
        <CharString name="Nacute.loclPLK">
          194 0 102 callsubr
          860 47 hintmask 10111000
          874 -46 callgsubr
          498 -463 -86 callsubr
          hintmask 01111000
          49 callgsubr
          endchar
        </CharString>
        <CharString name="Ncaron">
          194 0 102 callsubr
          860 47 hintmask 10111000
          1151 -58 callsubr
          210 -418 -86 callsubr
          hintmask 01111000
          49 callgsubr
          endchar
        </CharString>
        <CharString name="Ncommaaccent">
          194 -360 219 141 102 callsubr
          519 55 286 47 hintmask 01011110
          1372 1450 -86 callsubr
          hintmask 10111110
          49 callgsubr
          -632 -1550 -57 callsubr
        </CharString>
        <CharString name="Ntilde">
          194 0 41 -30 276 callsubr
          131 191 callgsubr
          hstemhm
          252 47 860 47 hintmask 10111110
          600 -40 callgsubr
          772 -397 -86 callsubr
          hintmask 01111110
          49 callgsubr
          endchar
        </CharString>
        <CharString name="O">
          39 callsubr
          760 1479 -99 callgsubr
        </CharString>
        <CharString name="OE">
          649 -29 37 -2 41 -26 -21 709 41 653 221 callgsubr
          262 rmoveto
          -8 callgsubr
          -47 238 callgsubr
          492 88 vlineto
          178 2 -119 -111 17 245 callgsubr
          135 -2 56 59 28 -1 28 35 vvcurveto
          39 1 49 6 71 12 callsubr
          -82 -17 4 -147 -178 hhcurveto
          -88 483 hlineto
          149 27 21 139 vhcurveto
          68 hlineto
          217 30 -80 -242 27 hvcurveto
          47 hlineto
          -4 31 -2 47 49 vvcurveto
          47 4 99 10 96 192 callsubr
          20 -55 -60 11 -65 hhcurveto
          -55 callsubr
          59 55 11 20 54 hvcurveto
          hintmask 0101010110000000
          4 161 193 0 94 hhcurveto
          hintmask 0011010110000000
          125 176 0 -6 127 hvcurveto
          hintmask 0101010110000000
          97 callgsubr
          -780 -45 280 callgsubr
          277 436 66 callsubr
          139 117 -60 -149 vhcurveto
          endchar
        </CharString>
        <CharString name="Oacute">
          39 callsubr
          975 1896 -92 callsubr
          -215 -417 -99 callgsubr
        </CharString>
        <CharString name="Oacute.loclPLK">
          39 callsubr
          864 -46 callgsubr
          -104 -434 -99 callgsubr
        </CharString>
        <CharString name="Obreve">
          237 callsubr
          123 127 hstem
          165 callgsubr
          891 205 vstem
          1139 1862 rmoveto
          -11 callsubr
          137 callsubr
          -403 -360 -99 callgsubr
        </CharString>
        <CharString name="Ocircumflex">
          39 callsubr
          738 1876 -76 callsubr
          -15 -397 -99 callgsubr
        </CharString>
        <CharString name="Odieresis">
          237 callsubr
          102 238 hstem
          165 callgsubr
          107 238 196 238 112 205 vstem
          539 -12 callsubr
          -213 -340 -99 callgsubr
        </CharString>
        <CharString name="Ograve">
          39 callsubr
          549 1896 rmoveto
          -80 callsubr
          225 callsubr
          -22 211 -107 -21 callsubr
          211 -417 -99 callgsubr
        </CharString>
        <CharString name="Ohungarumlaut">
          39 callsubr
          692 1888 rmoveto
          -41 callgsubr
          383 hmoveto
          -41 callgsubr
          -315 -409 -99 callgsubr
        </CharString>
        <CharString name="Omacron">
          237 callsubr
          198 52 hstem
          165 callgsubr
          891 205 vstem
          1116 158 callgsubr
          365 -198 -99 callgsubr
        </CharString>
        <CharString name="Omega">
          210 0 47 1395 37 hstemhm
          141 205 -184 41 913 205 hintmask 11101000
          731 261 callsubr
          -381 -209 -193 -319 -367 265 -194 190 -359 hvcurveto
          -98 hlineto
          hintmask 11011000
          -201 -72 86 256 -22 hvcurveto
          -47 hlineto
          4 -37 2 -53 -57 vvcurveto
          -47 -4 -99 -11 -96 vhcurveto
          60 6 92 0 57 84 92 -4 115 hflex1
          33 vlineto
          hintmask 11101000
          -100 149 -201 344 400 vvcurveto
          323 103 193 282 283 102 -193 -323 -400 -201 -344 -100 -149 vhcurveto
          -33 vlineto
          115 2 92 4 84 57 92 0 60 hflex1
          -10 96 -5 99 47 vvcurveto
          57 3 98 callsubr
          -23 -72 -86 -200 hhcurveto
          -99 hlineto
          191 359 264 194 367 vvcurveto
          319 -209 193 -381 vhcurveto
          endchar
        </CharString>
        <CharString name="Oslash">
          266 -29 37 1240 -20 214 37 hstem
          165 callgsubr
          891 205 vstem
          1356 1556 rmoveto
          -39 27 -159 -231 rlineto
          83 -106 -136 44 -156 hhcurveto
          -381 -270 -308 -458 -257 78 -198 135 -127 hvcurveto
          -172 -252 43 -29 167 248 rlineto
          -83 107 135 -44 156 hhcurveto
          381 270 308 458 258 -79 199 -135 126 hvcurveto
          -443 122 rmoveto
          126 114 -70 -124 81 hvcurveto
          -657 -999 rlineto
          -64 120 -39 161 191 vvcurveto
          66 callsubr
          vhcurveto
          14 -1434 rmoveto
          -126 -113 69 123 -81 hvcurveto
          655 1001 rlineto
          65 -120 38 -161 -191 vvcurveto
          -424 -172 -297 -266 vhcurveto
          endchar
        </CharString>
        <CharString name="Otilde">
          237 callsubr
          102 312 callgsubr
          165 callgsubr
          891 205 vstem
          590 -40 callgsubr
          170 -368 -99 callgsubr
        </CharString>
        <CharString name="P">
          0 callsubr
        </CharString>
        <CharString name="Q">
          266 -385 160 41 84 75 33 1434 37 hstem
          165 callgsubr
          891 205 vstem
          1532 -47 rmoveto
          -123 -62 -104 -55 -197 hhcurveto
          -159 -285 57 41 -205 hvcurveto
          317 callgsubr
          346 33 240 298 432 vvcurveto
          469 -260 273 -389 -381 -270 -308 -458 -437 226 -267 345 -34 vhcurveto
          -76 -28 -60 -39 -95 -25 rrcurveto
          11 -52 318 callgsubr
          56 53 63 12 18 54 hvcurveto
          12 -4 18 -4 19 -6 rrcurveto
          -88 262 180 -129 217 hhcurveto
          139 86 45 47 52 hvcurveto
          53 49 43 72 33 113 rrcurveto
          -1250 780 rmoveto
          66 callsubr
          252 200 -277 -436 -424 -172 -297 -266 -252 -201 277 436 vhcurveto
          endchar
        </CharString>
        <CharString name="R">
          75 -29 145 callgsubr
          492 205 hintmask 00000000
          hintmask 10111100
          1321 125 -2 callgsubr
          hintmask 01111100
          -2 callsubr
          hintmask 10111100
          -175 39 78 -47 103 hhcurveto
          110 51 47 84 58 hvcurveto
          -758 1307 rmoveto
          248 92 -125 -215 -188 -64 -152 -290 hvcurveto
          -138 504 209 callgsubr
        </CharString>
        <CharString name="Racute">
          75 -29 145 callgsubr
          492 205 hintmask 01111100
          907 -52 callsubr
          hintmask 10111100
          414 -1638 -2 callgsubr
          hintmask 01111100
          -2 callsubr
          hintmask 10111100
          -175 39 78 -47 103 hhcurveto
          110 51 47 84 58 hvcurveto
          -758 1307 rmoveto
          248 92 -125 -215 -188 -64 -152 -290 hvcurveto
          -138 504 209 callgsubr
        </CharString>
        <CharString name="Rcaron">
          75 -29 145 callgsubr
          492 205 hintmask 01111100
          619 121 callgsubr
          hintmask 10111100
          739 -1472 -2 callgsubr
          hintmask 01111100
          -2 callsubr
          hintmask 10111100
          -175 39 78 -47 103 hhcurveto
          110 51 47 84 58 hvcurveto
          -758 1307 rmoveto
          248 92 -125 -215 -188 -64 -152 -290 hvcurveto
          -138 504 209 callgsubr
        </CharString>
        <CharString name="Rcommaaccent">
          75 192 callgsubr
          112 145 callgsubr
          314 55 123 205 hintmask 00000000
          hintmask 01011111
          1321 125 -2 callgsubr
          hintmask 00111111
          -2 callsubr
          hintmask 11011111
          -175 39 78 -47 103 hhcurveto
          110 51 47 84 58 hvcurveto
          -758 1307 rmoveto
          248 92 -125 -215 -188 -64 -152 -290 hvcurveto
          -138 504 hlineto
          114 callsubr
          84 -1550 -57 callsubr
        </CharString>
        <CharString name="S">
          6 callgsubr
          524 1473 -103 callgsubr
        </CharString>
        <CharString name="Sacute">
          6 callgsubr
          782 1896 -92 callsubr
          -258 -423 -103 callgsubr
        </CharString>
        <CharString name="Sacute.loclPLK">
          6 callgsubr
          671 -46 callgsubr
          -147 -440 -103 callgsubr
        </CharString>
        <CharString name="Scaron">
          6 callgsubr
          948 -58 callsubr
          -435 -395 -103 callgsubr
        </CharString>
        <CharString name="Scedilla">
          -146 147 callgsubr
          105 40 -5 -21 1448 39 -15 -20 hstemhm
          137 47 -45 154 377 131 22 183 -127 47 hintmask 0000000000000000
          hintmask 1110100111000000
          1006 360 rmoveto
          220 -156 108 -213 133 vhcurveto
          -184 115 -160 74 186 vvcurveto
          141 104 97 146 vhcurveto
          hintmask 1110101010100000
          227 94 -199 -195 245 callsubr
          hintmask 1110011010100000
          258 4 88 6 72 12 callsubr
          -59 -8 -11 -31 -26 hhcurveto
          hintmask 1110100111000000
          287 callsubr
          -202 -183 -113 -242 -231 170 -111 195 -117 hvcurveto
          190 -114 129 -94 -166 vvcurveto
          -193 -133 -80 -133 vhcurveto
          hintmask 1110101010100000
          -262 -94 217 248 -17 hvcurveto
          -47 hlineto
          hintmask 1101101010100000
          -289 -2 -118 -6 -84 40 callgsubr
          hintmask 1110101010100000
          17 20 -8 -21 33 hvcurveto
          55 -34 69 -36 125 -5 -56 -169 rcurveline
          -68 callgsubr
          41 118 rlineto
          hintmask 1110100111000000
          227 9 183 129 251 vvcurveto
          endchar
        </CharString>
        <CharString name="Scircumflex">
          6 callgsubr
          545 1876 -76 callsubr
          -58 -403 -103 callgsubr
        </CharString>
        <CharString name="Scommaaccent">
          -146 192 callgsubr
          112 41 -5 -21 1448 39 -15 -20 hstemhm
          137 47 -45 154 359 55 116 183 -127 47 hintmask 0101010101000000
          524 1473 rmoveto
          hintmask 0101001110000000
          -202 -183 -113 -242 -231 170 -111 195 -117 hvcurveto
          190 -114 129 -94 -166 vvcurveto
          -193 -133 -80 -133 vhcurveto
          hintmask 0101010101000000
          -262 -94 217 248 -17 hvcurveto
          -47 hlineto
          hintmask 0011010101000000
          -289 -2 -118 -6 -84 40 callgsubr
          hintmask 0101001110000000
          17 20 -8 -21 33 hvcurveto
          -37 59 76 -39 145 hhcurveto
          238 197 129 260 220 -156 108 -213 133 hvcurveto
          -184 115 -160 74 186 vvcurveto
          141 104 97 146 vhcurveto
          hintmask 0101010101000000
          227 94 -199 -195 245 callsubr
          hintmask 0100110101000000
          258 4 88 6 72 12 callsubr
          -59 -8 -11 -31 -26 hhcurveto
          hintmask 0101010101000000
          287 callsubr
          hintmask 1101010101000000
          50 -1614 -57 callsubr
        </CharString>
        <CharString name="T">
          170 callgsubr
          1212 1450 -72 callsubr
          endchar
        </CharString>
        <CharString name="Tbar">
          32 299 callgsubr
          653 47 hstem
          545 233 callsubr
          vstem
          1216 115 callsubr
          -653 -330 -41 330 -471 103 callgsubr
          65 4 115 298 callsubr
          118 -2 72 109 callsubr
          471 328 41 -328 653 111 vlineto
          256 30 139 callsubr
        </CharString>
        <CharString name="Tcaron">
          170 callgsubr
          1022 -58 callsubr
          179 -418 -72 callsubr
          endchar
        </CharString>
        <CharString name="Tcedilla">
          20 147 callgsubr
          133 41 1362 47 hstemhm
          541 190 -10 131 305 41 hintmask 11111010
          1212 115 callsubr
          -1165 hlineto
          322 callsubr
          59 100 2 110 hhcurveto
          -68 -203 rlineto
          hintmask 11110110
          -68 callgsubr
          53 153 rlineto
          104 108 -2 -4 67 285 callgsubr
          1165 111 vlineto
          256 30 139 callsubr
        </CharString>
        <CharString name="Thorn">
          -64 0 41 242 41 782 39 264 -10 callgsubr
          478 204 vstem
          442 283 rmoveto
          144 hlineto
          424 114 256 206 226 -163 174 -330 -34 -72 -2 -1 -83 hvcurveto
          91 vlineto
          -95 callsubr
          -139 6 -66 callsubr
          vvcurveto
          138 889 rmoveto
          247 93 -129 -244 -219 -64 -190 -291 hvcurveto
          -123 780 hlineto
          1 46 50 1 42 hhcurveto
          endchar
        </CharString>
        <CharString name="U">
          81 callgsubr
          1341 1450 -105 callgsubr
        </CharString>
        <CharString name="Uacute">
          81 callgsubr
          940 1896 -92 callsubr
          401 -446 -105 callgsubr
        </CharString>
        <CharString name="Ubreve">
          145 -29 72 1366 41 152 127 hstem
          221 191 716 48 vstem
          1104 1862 rmoveto
          -11 callsubr
          137 callsubr
          213 -389 -105 callgsubr
        </CharString>
        <CharString name="Ucircumflex">
          81 callgsubr
          703 1876 -76 callsubr
          601 -426 -105 callgsubr
        </CharString>
        <CharString name="Udieresis">
          145 -29 72 1366 41 131 238 hstemhm
          221 191 -27 238 196 238 71 48 hintmask 00000000
          hintmask 11101110
          504 -12 callsubr
          403 -369 rmoveto
          -45 -4 -75 -2 -70 -70 -90 2 -49 hflex1
          -27 callsubr
          vhcurveto
          hintmask 11010010
          125 callsubr
          hvcurveto
          678 vlineto
          149 26 21 140 6 vhcurveto
          41 vlineto
          -64 -4 -102 -2 -95 -106 -98 2 -58 304 callgsubr
          -643 vlineto
          -279 31 -116 121 -113 vhcurveto
          -84 90 123 -27 131 hhcurveto
          168 139 76 115 68 hvcurveto
          61 104 23 140 190 vvcurveto
          616 209 callsubr
          41 -46 callsubr
          endchar
        </CharString>
        <CharString name="Ugrave">
          81 callgsubr
          514 1896 rmoveto
          -80 callsubr
          225 callsubr
          -22 211 -107 -21 callsubr
          827 -446 -105 callgsubr
        </CharString>
        <CharString name="Uhungarumlaut">
          81 callgsubr
          657 1888 rmoveto
          -41 callgsubr
          383 hmoveto
          -41 callgsubr
          301 -438 -105 callgsubr
        </CharString>
        <CharString name="Umacron">
          145 -29 72 1366 41 227 52 hstem
          221 191 716 48 vstem
          1081 158 callgsubr
          981 -227 -105 callgsubr
        </CharString>
        <CharString name="Uogonek">
          145 -385 98 258 72 1366 41 hstem
          221 191 128 150 438 48 vstem
          1151 1444 rmoveto
          -70 -90 2 4 -49 hvcurveto
          -27 callsubr
          125 callsubr
          vhcurveto
          678 vlineto
          149 26 21 140 6 vhcurveto
          41 vlineto
          -64 -4 -102 -2 -95 -106 -98 2 -58 304 callgsubr
          -643 vlineto
          -279 31 -116 121 -113 vhcurveto
          -84 90 123 -27 131 hhcurveto
          17 hlineto
          -125 -57 -69 -78 -88 5 callgsubr
          60 36 75 113 47 hvcurveto
          112 27 90 64 51 86 rrcurveto
          61 104 23 140 190 vvcurveto
          616 209 callsubr
          41 -46 callsubr
          41 vlineto
          -4 -45 -75 -2 -70 hhcurveto
          endchar
        </CharString>
        <CharString name="Uring">
          145 -29 72 1366 41 192 43 289 43 hstem
          221 191 113 329 callsubr
          208 48 vstem
          721 2017 53 callgsubr
          620 -524 -105 callgsubr
        </CharString>
        <CharString name="Utilde">
          145 -29 72 1366 41 131 312 callgsubr
          221 191 716 48 vstem
          555 -40 callgsubr
          786 -397 -105 callgsubr
        </CharString>
        <CharString name="V">
          38 11 276 callsubr
          hstemhm
          -12 1317 -211 211 hintmask 11100000
          1151 1444 rmoveto
          -72 -86 2 4 -78 hvcurveto
          -41 vlineto
          hintmask 11010000
          117 -3 62 -31 -90 vvcurveto
          -42 -14 -55 -27 -70 vhcurveto
          -334 -865 -371 984 rlineto
          -16 41 -8 31 24 vvcurveto
          57 47 15 98 218 callgsubr
          -99 -2 -106 -78 -86 2 -55 hflex1
          -41 vlineto
          43 -2 57 -25 41 -104 500 -1288 rcurveline
          232 callgsubr
          481 1241 47 123 61 43 54 261 callgsubr
          hintmask 11100000
          299 callsubr
          -70 hhcurveto
          endchar
        </CharString>
        <CharString name="W">
          144 callsubr
          1704 1444 -98 callsubr
        </CharString>
        <CharString name="Wacute">
          144 callsubr
          1251 -52 callsubr
          453 -319 -98 callsubr
        </CharString>
        <CharString name="Wcircumflex">
          144 callsubr
          909 3 callgsubr
          795 -276 -98 callsubr
        </CharString>
        <CharString name="Wdieresis">
          601 11 276 callsubr
          131 238 hstemhm
          614 111 callgsubr
          hintmask 11111000
          733 -13 callsubr
          537 -137 -98 callsubr
        </CharString>
        <CharString name="Wgrave">
          144 callsubr
          661 1763 rmoveto
          225 callsubr
          -22 211 -107 -21 callsubr
          -80 callsubr
          1043 -319 -98 callsubr
        </CharString>
        <CharString name="X">
          -33 callgsubr
        </CharString>
        <CharString name="Y">
          116 callsubr
          1051 1444 -81 callsubr
        </CharString>
        <CharString name="Yacute">
          116 callsubr
          924 -52 callsubr
          127 -319 -81 callsubr
        </CharString>
        <CharString name="Ycircumflex">
          116 callsubr
          582 3 callgsubr
          469 -276 -81 callsubr
        </CharString>
        <CharString name="Ydieresis">
          -42 0 41 1366 43 131 238 hstemhm
          287 238 3 191 2 238 37 208 hintmask 00000000
          hintmask 11110110
          406 -13 callsubr
          211 -137 rmoveto
          -72 -86 2 4 -78 hvcurveto
          -41 vlineto
          114 -3 67 -25 -81 vvcurveto
          -42 -18 -57 -38 -77 vhcurveto
          -261 -520 -341 653 rlineto
          -15 29 -6 23 19 vvcurveto
          61 66 18 78 vhcurveto
          43 vlineto
          -88 -6 -109 0 -90 -70 -57 2 -53 159 callsubr
          34 -14 -101 56 hvcurveto
          hintmask 11001010
          415 -766 rlineto
          -309 320 callsubr
          58 183 callsubr
          82 callsubr
          191 callsubr
          373 vlineto
          321 637 62 121 49 49 53 261 callgsubr
          hintmask 11110110
          196 callgsubr
        </CharString>
        <CharString name="Ygrave">
          116 callsubr
          334 1763 rmoveto
          225 callsubr
          -22 211 -107 -21 callsubr
          -80 callsubr
          717 -319 -81 callsubr
        </CharString>
        <CharString name="Z">
          167 callsubr
          1126 1409 -81 callgsubr
        </CharString>
        <CharString name="Zacute">
          167 callsubr
          823 1896 -92 callsubr
          303 -487 -81 callgsubr
        </CharString>
        <CharString name="Zacute.loclPLK">
          167 callsubr
          712 -46 callgsubr
          414 -504 -81 callgsubr
        </CharString>
        <CharString name="Zcaron">
          167 callsubr
          989 -58 callsubr
          126 -459 -81 callgsubr
        </CharString>
        <CharString name="Zdotaccent">
          -35 0 47 1356 47 252 262 hstemhm
          473 262 269 callsubr
          604 1964 rmoveto
          2 callgsubr
          522 -555 -81 callgsubr
        </CharString>
        <CharString name="a">
          90 callsubr
          69 callsubr
          hintmask 01110100
          510 1083 -71 callsubr
        </CharString>
        <CharString name="a.smcp">
          90 callgsubr
          197 callsubr
          647 1255 -104 callgsubr
        </CharString>
        <CharString name="aacute">
          90 callsubr
          162 -20 69 callsubr
          hintmask 01111010
          723 -90 callsubr
          -213 -582 -91 callgsubr
        </CharString>
        <CharString name="aacute.smcp">
          90 callgsubr
          197 callsubr
          890 -52 callgsubr
          -243 -377 -104 callgsubr
        </CharString>
        <CharString name="abreve">
          90 callsubr
          213 121 69 callsubr
          hintmask 01111010
          834 -14 callsubr
          -359 -512 -91 callgsubr
        </CharString>
        <CharString name="abreve.smcp">
          90 callgsubr
          201 127 197 callsubr
          606 1436 rmoveto
          198 127 131 106 62 hvcurveto
          -25 23 rlineto
          -11 callgsubr
          41 -181 -104 callgsubr
        </CharString>
        <CharString name="acircumflex">
          90 callsubr
          69 callsubr
          hintmask 01110100
          485 -69 callgsubr
          -12 -559 -71 callsubr
        </CharString>
        <CharString name="acircumflex.smcp">
          90 callgsubr
          244 -20 197 callsubr
          569 4 callgsubr
          78 -338 -104 callgsubr
        </CharString>
        <CharString name="acute">
          -795 1245 -20 hstem
          41 374 vstem
          387 -90 callsubr
          endchar
        </CharString>
        <CharString name="acute.case">
          -689 1581 335 hstem
          41 480 vstem
          385 1896 -92 callsubr
          endchar
        </CharString>
        <CharString name="acute.loclPLK">
          -900 1225 457 hstem
          108.399993896 298 callgsubr
          vstem
          258 -50 callgsubr
          endchar
        </CharString>
        <CharString name="acute.loclPLK.case">
          -937 1554 366 hstem
          51 212 vstem
          217 -46 callgsubr
          endchar
        </CharString>
        <CharString name="acute.loclPLK.smcp">
          -937 1432 365 hstem
          51 212 vstem
          217 -47 callsubr
          endchar
        </CharString>
        <CharString name="acute.smcp">
          -689 1450 335 hstem
          188 481 vstem
          532 -88 callgsubr
          endchar
        </CharString>
        <CharString name="adieresis">
          90 callsubr
          201 238 hstemhm
          80 180 -133 231 -188 197 callgsubr
          -187 185 hintmask 0000000000000000
          hintmask 0111001100000000
          289 -37 callgsubr
          -213 -439 rmoveto
          hintmask 0110010010000000
          -92 callgsubr
          hintmask 0110100010000000
          -205 -86 -125 -72 -162 vvcurveto
          -160 123 -69 137 98 129 37 145 88 vhcurveto
          -96 33 -86 143 87 43 32 43 57 vhcurveto
          hintmask 1010100010000000
          -23 35 rlineto
          -24 -28 -27 -19 -37 hhcurveto
          -47 -16 31 66 hvcurveto
          569 vlineto
          145 -17 76 -65 66 vhcurveto
          hintmask 0111001100000000
          47 -47 -86 30 -115 hhcurveto
          hintmask 0110100010000000
          145 -860 rmoveto
          -112 -69 -80 -43 -82 hhcurveto
          -94 -70 57 123 158 109 59 90 43 hvcurveto
          129 63 45 21 22 33 rrcurveto
          endchar
        </CharString>
        <CharString name="adieresis.smcp">
          90 callgsubr
          227 238 hstemhm
          272 111 callgsubr
          hintmask 11111100
          391 -12 callgsubr
          -178 -207 -104 callgsubr
        </CharString>
        <CharString name="ae">
          268 -29 82 -82 86 576 39 372 39 hstemhm
          84 180 -147 221 311 180 406 197 hintmask 01111011
          1118 57 rmoveto
          -147 -142 164 281 45 2 47 5 39 hvcurveto
          596 hlineto
          309 -136 141 -227 -120 -98 -44 -86 -71 vhcurveto
          100 -57 -103 30 -126 hhcurveto
          hintmask 01110111
          -136 -88 -34 -39 -57 hvcurveto
          -57 -39 -39 288 callgsubr
          36 -51 11 vhcurveto
          59 47 88 14 62 hhcurveto
          98 102 -34 -172 hvcurveto
          -127 vlineto
          -78 -100 -35 -146 -64 vhcurveto
          hintmask 01111011
          -192 -83 -127 -78 -174 vvcurveto
          -164 133 -62 129 142 125 71 191 84 vhcurveto
          -168 62 130 -94 188 hhcurveto
          183 118 138 137 41 hvcurveto
          -41 16 rlineto
          -153 -63 -90 -52 -107 hhcurveto
          -57 987 338 callgsubr
          -403 hlineto
          258 21 96 114 112 hhcurveto
          -412 -821 rmoveto
          hintmask 10111011
          -133 -65 -86 -37 -74 hhcurveto
          -78 -82 41 137 148 90 78 129 63 hvcurveto
          56 27 77 39 33 39 rrcurveto
          endchar
        </CharString>
        <CharString name="ae.smcp">
          372 0 41 -41 74 callsubr
          hstemhm
          -6 182 561 191 305 35 hintmask 01110011
          1497 242 rmoveto
          57 2 98 callsubr
          -22 -11 -86 -200 hhcurveto
          -129 hlineto
          -140 -26 21 149 hvcurveto
          389 149 vlineto
          142 2 -108 -101 12 245 callgsubr
          125 -2 49 56 24 -1 24 29 vvcurveto
          37 1 46 6 69 255 callsubr
          -13 7 -135 -144 hhcurveto
          -149 381 hlineto
          150 26 20 140 vhcurveto
          108 hlineto
          168 25 -76 -225 20 -64 callsubr
          131 callgsubr
          -6 -108 -152 0 -106 hhcurveto
          -69 -119 0 1 -124 hvcurveto
          62 110 rlineto
          -47 hlineto
          -62 -109 -60 1 -59 1 -55 2 rlinecurve
          hintmask 10101111
          -41 vlineto
          69 -3 41 -6 24 -24 -570 -999 rcurveline
          -57 -96 -41 -33 -43 -2 rrcurveto
          hintmask 01110111
          -41 vlineto
          35 4 55 2 47 74 71 -2 41 hflex1
          hintmask 10110111
          41 vlineto
          -93 4 -48 19 50 vvcurveto
          25 11 32 24 42 vhcurveto
          222 393 rlineto
          304 -389 hlineto
          hintmask 01110011
          257 callgsubr
          119 168 0 120 hflex1
          80 callgsubr
          -760 405 rmoveto
          -281 hlineto
          272 481 rlineto
          7 -24 2 -33 -43 vvcurveto
          endchar
        </CharString>
        <CharString name="agrave">
          90 callsubr
          162 -20 69 callsubr
          hintmask 01111010
          252 -32 callsubr
          258 -582 -91 callgsubr
        </CharString>
        <CharString name="agrave.smcp">
          90 callgsubr
          242 -20 197 callsubr
          303 1632 rmoveto
          225 callsubr
          -23 211 -106 -21 callsubr
          -80 callsubr
          344 -377 -104 callgsubr
        </CharString>
        <CharString name="amacron">
          90 callsubr
          324 51 69 callsubr
          hintmask 01111010
          817 181 callsubr
          332 -324 -91 callgsubr
        </CharString>
        <CharString name="amacron.smcp">
          90 callgsubr
          295 51 197 callsubr
          964 157 callgsubr
          404 -275 -104 callgsubr
        </CharString>
        <CharString name="ampersand">
          462 -29 152 221 31 481 86 465 31 10 31 hstemhm
          111 141 31 129 243 62 -21 222 14 221 -4 223 -33 60 215 59 hintmask 1100111101011000
          1374 261 callsubr
          hintmask 1100111100101000
          -98 -127 -35 -107 -69 55 -33 53 62 53 43 57 35 -20 41 -37 19 hvcurveto
          12 6 22 6 33 hhcurveto
          127 111 -90 -117 -70 -39 -63 -137 -64 hvcurveto
          -152 -69 -225 -51 -123 -41 rrcurveto
          -186 -64 -97 -94 -141 vvcurveto
          -170 138 -70 116 vhcurveto
          hintmask 1111111101011000
          109 135 59 117 66 -43 45 -66 -63 -49 -41 -66 -69 53 -27 43 -8 hvcurveto
          -31 -8 -78 -14 -37 hhcurveto
          -78 -110 57 107 88 78 51 102 39 hvcurveto
          55 21 88 28 93 29 rrcurveto
          181 -73 25 -151 -73 vvcurveto
          -234 -249 -141 -289 -307 -242 160 282 191 108 98 158 47 vhcurveto
          -14 33 65 -31 52 hhcurveto
          34 23 14 25 31 -33 16 -49 -25 -55 -4 -8 -47 hvcurveto
          -82 76 -22 81 76 vvcurveto
          158 98 86 139 84 60 -31 -35 12 vhcurveto
          hintmask 1101111011011000
          -64 -6 -45 -47 -59 vvcurveto
          -66 52 -37 55 57 58 41 68 43 -23 55 -53 43 vhcurveto
          35 -43 -66 27 -104 hhcurveto
          -228 -118 -123 -133 -101 69 -104 137 -59 hvcurveto
          -104 -27 -274 -113 -297 vvcurveto
          -315 309 -195 354 395 230 242 248 148 -64 132 -160 67 vhcurveto
          119 37 120 39 65 31 rrcurveto
          108 54 86 94 139 vvcurveto
          hintmask 1100111101011000
          174 -131 103 -168 vhcurveto
          endchar
        </CharString>
        <CharString name="ampersand.smcp">
          384 -29 140 151 31 461 86 403 31 hstemhm
          109 141 -10 129 284 221 -200 43 172 221 16 224 -15 47 148 53 hintmask 1101100100110000
          1583 1055 rmoveto
          139 -100 80 -127 vhcurveto
          hintmask 1101100101010000
          -101 -129 -31 -115 -61 52 -37 59 57 56 43 57 35 -21 41 -37 19 hvcurveto
          12 6 23 8 27 hhcurveto
          100 82 -59 -90 -60 -33 -55 -123 -59 hvcurveto
          -119 -60 -208 -67 -91 -33 rrcurveto
          -190 -68 -92 -104 -137 vvcurveto
          -125 76 -66 118 vhcurveto
          hintmask 1111100110110000
          105 137 60 116 66 -43 45 -66 -63 -49 -41 -66 -69 51 -27 45 -8 hvcurveto
          -31 -8 -64 -14 -51 hhcurveto
          -76 -69 51 88 94 96 49 102 39 hvcurveto
          53 21 78 29 79 30 rrcurveto
          194 -47 16 -134 -60 vvcurveto
          -205 -221 -137 -334 -301 -229 139 235 181 98 90 127 43 vhcurveto
          -15 33 65 -30 52 hhcurveto
          34 23 12 27 28 -33 19 -49 -25 -55 -4 -9 -47 hvcurveto
          hintmask 1101011000110000
          -82 58 -22 59 88 vvcurveto
          121 98 90 143 78 62 -31 -34 12 vhcurveto
          -64 -4 -45 -50 -59 vvcurveto
          -68 52 -34 55 57 57 41 67 43 -22 55 -53 43 vhcurveto
          33 -43 -60 29 -108 hhcurveto
          -228 -120 -107 -129 -98 69 -82 137 -43 hvcurveto
          hintmask 1101100100110000
          -92 -24 -245 -109 -283 vvcurveto
          -266 294 -162 347 407 225 219 252 93 -47 128 -170 46 vhcurveto
          89 34 83 32 43 18 rrcurveto
          133 55 70 82 125 vvcurveto
          endchar
        </CharString>
        <CharString name="aogonek">
          -232 -385 98 273 82 -81 66 989 41 hstemhm
          80 180 -133 231 224 150 -77 185 hintmask 00000000
          hintmask 10111010
          820 -287 rmoveto
          -56 -32 37 53 66 45 70 133 57 hvcurveto
          5 2 7 1 5 5 33 13 27 20 31 24 -23 35 rcurveline
          hintmask 10110101
          -24 -28 -27 -19 -37 hhcurveto
          -47 -16 31 66 hvcurveto
          569 vlineto
          145 -17 76 -65 66 vhcurveto
          47 -47 -86 30 -115 hhcurveto
          -92 callgsubr
          hintmask 11011001
          -205 -86 -125 -72 -162 vvcurveto
          -160 123 -69 137 98 129 37 145 88 vhcurveto
          -91 30 -83 126 -7 vhcurveto
          hintmask 11011010
          -146 -59 -83 -84 -96 52 callsubr
          hintmask 10111010
          -37 -27 -47 -31 -51 hhcurveto
          hintmask 11011001
          -165 510 rmoveto
          -112 -69 -80 -43 -82 hhcurveto
          -94 -70 57 123 158 109 59 90 43 hvcurveto
          129 63 45 21 22 33 rrcurveto
          endchar
        </CharString>
        <CharString name="aogonek.smcp">
          10 277 callgsubr
          138 callgsubr
          hstem
          851 150 vstem
          1202 3 rmoveto
          25 -1 22 -1 19 -1 rrcurveto
          41 vlineto
          -43 2 -54 27 -45 102 -479 1083 rcurveline
          -33 hlineto
          -452 -1024 -41 -94 -49 -76 -78 -20 rlinecurve
          -41 vlineto
          35 4 96 2 47 74 71 -2 41 -16 callgsubr
          -112 9 -47 42 70 vvcurveto
          37 12 43 22 51 vhcurveto
          69 153 rlineto
          500 hlineto
          103 -233 rlineto
          19 -41 9 -32 -24 vvcurveto
          -55 -49 -16 -98 198 callsubr
          4 58 98 2 107 hhcurveto
          83 -1 rlineto
          -179 -59 -102 -91 -107 5 callgsubr
          69 47 87 154 44 hvcurveto
          -418 484 rmoveto
          -464 hlineto
          233 521 rlineto
          endchar
        </CharString>
        <CharString name="approxequal">
          26 451 108 68 110 -14 108 68 111 hstemhm
          143 1006 hintmask 10111000
          393 1010 rmoveto
          -145 -70 -92 -136 174 callgsubr
          11 rlineto
          -91 -41 -59 -39 -82 -178 -158 179 -203 hhcurveto
          hintmask 11011000
          -273 vmoveto
          -145 -70 -92 -135 174 callgsubr
          10 rlineto
          -90 -41 -59 -39 -82 -178 -158 178 -203 hhcurveto
          endchar
        </CharString>
        <CharString name="aring">
          90 callsubr
          162 43 289 43 hstemhm
          80 180 -133 231 -50 329 callsubr
          -48 185 hintmask 0000000000000000
          hintmask 0111110110000000
          504 1620 53 callgsubr
          6 -494 rmoveto
          hintmask 0111101001000000
          -92 callgsubr
          hintmask 0111110101000000
          -205 -86 -125 -72 -162 vvcurveto
          -160 123 -69 137 98 129 37 145 88 vhcurveto
          -96 33 -86 143 87 43 32 43 57 vhcurveto
          hintmask 1011110101000000
          -23 35 rlineto
          -24 -28 -27 -19 -37 hhcurveto
          -47 -16 31 66 hvcurveto
          569 vlineto
          145 -17 76 -65 66 vhcurveto
          hintmask 0111110110000000
          47 -47 -86 30 -115 hhcurveto
          hintmask 0111110101000000
          145 -860 rmoveto
          -112 -69 -80 -43 -82 hhcurveto
          -94 -70 57 123 158 109 59 90 43 hvcurveto
          129 63 45 21 22 33 rrcurveto
          endchar
        </CharString>
        <CharString name="aring.smcp">
          90 callgsubr
          162 43 289 43 hstem
          412 329 callsubr
          vstem
          608 1397 rmoveto
          107 92 71 117 115 -92 72 -107 -104 -92 -72 -115 -117 92 -71 104 hvcurveto
          332 vmoveto
          68 74 -52 149 callsubr
          52 65 hvcurveto
          39 -474 -104 callgsubr
        </CharString>
        <CharString name="arrowboth">
          130 524 33 hstem
          51 1280 vstem
          872 924 rmoveto
          58 -122 29 -120 2 -125 rrcurveto
          -539 hlineto
          2 125 29 120 57 122 106 callsubr
          -56 121 -29 120 -3 125 rrcurveto
          539 hlineto
          -3 -125 -29 -120 -57 -121 rrcurveto
          35 hlineto
          94 207 136 118 194 58 -194 57 -136 119 -94 207 rrcurveto
          endchar
        </CharString>
        <CharString name="arrowdown">
          -240 1 -21 hstem
          489 33 vstem
          506 829 rmoveto
          290 callsubr
          207 -94 119 -135 57 -195 57 195 119 135 207 94 280 callsubr
          -184 vmoveto
          290 callsubr
          188 -86 116 -119 62 -168 rrcurveto
          -258 vlineto
          -125 3 -120 29 -121 56 rrcurveto
          -35 vlineto
          207 -94 119 -135 57 -194 57 194 119 135 207 94 rrcurveto
          35 vlineto
          -122 -57 -120 -29 -125 -2 rrcurveto
          256 vlineto
          62 169 116 120 189 86 280 callsubr
          endchar
        </CharString>
        <CharString name="arrowdownleft">
          149 1 -21 490 32 98 33 hstem
          624 32 98 33 vstem
          735 582 rmoveto
          35 76 17 76 83 vvcurveto
          89 -20 96 -42 112 vhcurveto
          -25 -24 rlineto
          36 -95 18 -89 -85 vvcurveto
          -105 -28 -100 -54 -98 vhcurveto
          54 99 100 28 105 hhcurveto
          84 88 -17 -36 95 hvcurveto
          25 24 rlineto
          42 -112 -97 20 -89 hhcurveto
          -82 -76 -17 -34 -77 hvcurveto
          -131 -131 rmoveto
          35 77 17 77 83 vvcurveto
          89 -20 96 -40 110 vhcurveto
          -25 -25 rlineto
          35 -94 18 -88 -84 vvcurveto
          -87 -19 -84 -38 -83 vhcurveto
          -183 -185 -86 92 -64 104 -48 126 rlinecurve
          -24 -24 rlineto
          36 -95 17 -88 -84 vvcurveto
          -105 -28 -100 -54 -99 vhcurveto
          54 98 100 28 105 hhcurveto
          85 89 -18 -36 95 hvcurveto
          24 25 -126 47 -105 64 -91 87 rlinecurve
          183 182 rlineto
          38 84 85 19 89 hhcurveto
          83 87 -17 -35 94 hvcurveto
          25 24 rlineto
          40 -110 -97 20 -89 hhcurveto
          -83 -77 -17 -34 -77 hvcurveto
          endchar
        </CharString>
        <CharString name="arrowdownright">
          149 1 -21 491 32 98 33 hstem
          614 33 98 32 vstem
          729 519 rmoveto
          -54 98 -28 100 105 vvcurveto
          84 18 89 36 95 vhcurveto
          -25 24 rlineto
          -42 -112 -20 -96 -89 vvcurveto
          -82 17 -76 35 -77 vhcurveto
          35 -77 -76 17 -83 hhcurveto
          -89 -96 -20 -42 -112 hvcurveto
          25 -25 rlineto
          36 95 89 18 84 hhcurveto
          105 100 -28 -54 98 hvcurveto
          486 57 rmoveto
          -48 -126 -64 -105 -86 -92 -183 185 rcurveline
          -38 83 -19 84 88 vvcurveto
          84 18 88 35 94 vhcurveto
          -25 24 rlineto
          -40 -110 -20 -96 -88 vvcurveto
          -84 17 -77 35 -77 vhcurveto
          35 -77 -78 17 -83 hhcurveto
          -89 -96 -20 -40 -110 hvcurveto
          25 -25 rlineto
          35 94 88 18 83 hhcurveto
          89 84 -20 -38 83 hvcurveto
          184 -182 -91 -87 -105 -64 -126 -47 rlinecurve
          24 -24 rlineto
          35 95 88 18 85 hhcurveto
          105 100 -28 -54 99 hvcurveto
          -54 99 -28 100 105 vvcurveto
          84 17 88 36 95 vhcurveto
          endchar
        </CharString>
        <CharString name="arrowleft">
          143 524 33 hstem
          51 1221 vstem
          717 541 rmoveto
          164 61 110 115 96 207 rrcurveto
          -34 hlineto
          -87 -189 -120 -116 -169 -62 rrcurveto
          -255 hlineto
          2 125 29 120 57 122 106 callsubr
          -56 121 -29 120 -3 125 rrcurveto
          258 hlineto
          167 -63 119 -114 87 -189 rrcurveto
          34 hlineto
          -96 207 -110 114 -164 62 rrcurveto
          184 hmoveto
          164 61 111 115 96 207 106 callsubr
          -96 207 -111 114 -164 62 rrcurveto
          endchar
        </CharString>
        <CharString name="arrowright">
          143 524 33 hstem
          123 1221 vstem
          582 541 rmoveto
          319 callsubr
          -35 hlineto
          96 -207 111 -115 164 -61 -164 -62 -111 -114 -96 -207 288 callsubr
          rrcurveto
          303 383 rmoveto
          57 -122 29 -120 2 -125 rrcurveto
          -255 hlineto
          -169 62 -120 116 -87 189 rrcurveto
          -34 hlineto
          96 -207 110 -115 164 -61 -164 -62 -110 -114 -96 -207 rrcurveto
          34 hlineto
          87 189 119 114 167 63 rrcurveto
          258 hlineto
          -3 -125 -29 -120 -56 -121 288 callsubr
          319 callsubr
          endchar
        </CharString>
        <CharString name="arrowup">
          -240 1 -21 hstem
          489 33 vstem
          889 776 rmoveto
          -207 94 -119 136 -57 194 -57 -194 -119 -136 -207 -94 rrcurveto
          -35 vlineto
          121 57 120 29 125 2 rrcurveto
          -257 vlineto
          -62 -168 -116 -119 -188 -86 rrcurveto
          -35 vlineto
          207 96 114 111 62 164 61 -164 115 -111 207 -96 rrcurveto
          35 vlineto
          -189 86 -116 120 -62 169 rrcurveto
          255 vlineto
          125 -2 120 -28 122 -58 rrcurveto
          -383 -303 rmoveto
          -57 -194 -119 -135 -207 -95 rrcurveto
          -34 vlineto
          207 96 114 110 62 164 61 -164 115 -110 207 -96 rrcurveto
          34 vlineto
          -207 95 -119 135 -57 194 rrcurveto
          endchar
        </CharString>
        <CharString name="arrowupleft">
          263 callgsubr
          624 32 98 33 hintmask 11101110
          1112 676 rmoveto
          -35 -94 -88 -18 -83 hhcurveto
          -89 -84 20 38 -83 hvcurveto
          -184 182 rlineto
          hintmask 11110110
          91 87 105 64 126 47 rrcurveto
          hintmask 11101110
          -24 24 rlineto
          -35 -95 -88 -18 -85 hhcurveto
          -105 -100 28 54 -99 hvcurveto
          54 -99 28 -100 -105 vvcurveto
          -84 -17 -88 -36 -95 vhcurveto
          24 -25 48 126 64 105 86 92 rlinecurve
          183 -185 rlineto
          38 -83 19 -84 -88 vvcurveto
          -84 -18 -88 -35 -94 vhcurveto
          25 -24 rlineto
          40 110 20 96 88 vvcurveto
          84 -17 77 -35 77 vhcurveto
          -35 77 78 -17 83 hhcurveto
          89 96 20 40 110 hvcurveto
          106 -104 rmoveto
          -36 -95 -89 -18 -84 hhcurveto
          -105 -100 28 54 -98 hvcurveto
          54 -98 28 -100 -105 vvcurveto
          -84 -18 -89 -36 -95 vhcurveto
          25 -24 rlineto
          42 112 20 96 89 vvcurveto
          82 -17 76 -35 77 vhcurveto
          -35 77 76 -17 83 hhcurveto
          89 96 20 42 112 hvcurveto
          endchar
        </CharString>
        <CharString name="arrowupright">
          263 callgsubr
          614 33 98 32 hintmask 11101110
          1268 1114 rmoveto
          -54 -99 -100 -28 -105 hhcurveto
          -85 -88 18 35 -95 hvcurveto
          hintmask 11110110
          -24 -24 126 -47 105 -64 91 -87 rlinecurve
          -184 -182 rlineto
          -38 -83 -84 -20 -89 hhcurveto
          -83 -88 18 35 -94 hvcurveto
          -25 -25 rlineto
          -40 110 96 -20 89 hhcurveto
          83 78 17 35 77 hvcurveto
          -35 -77 -17 -77 -84 vvcurveto
          -88 20 -96 40 -110 vhcurveto
          25 24 rlineto
          -35 94 -18 88 84 vvcurveto
          88 19 84 38 83 vhcurveto
          183 185 86 -92 64 -105 48 -126 rlinecurve
          24 25 rlineto
          -36 95 -17 88 84 vvcurveto
          hintmask 11101110
          105 28 100 54 99 vhcurveto
          -1135 -592 rmoveto
          -42 112 96 -20 89 hhcurveto
          83 76 17 35 77 hvcurveto
          -35 -77 -17 -76 -82 vvcurveto
          -89 20 -96 42 -112 vhcurveto
          25 24 rlineto
          -36 95 -18 89 84 vvcurveto
          105 28 100 54 98 vhcurveto
          -54 -98 -100 -28 -105 hhcurveto
          -84 -89 18 36 -95 hvcurveto
          endchar
        </CharString>
        <CharString name="asciicircum">
          -154 1081 -20 hstem
          147 803 vstem
          530 1081 rmoveto
          -63 -153 -141 -154 -179 -86 17 -29 rcurveline
          131 60 135 96 78 90 94 -90 168 -96 164 -60 16 29 rcurveline
          -178 86 -141 154 -64 153 rrcurveto
          endchar
        </CharString>
        <CharString name="asciicircum.case">
          -347 1087 -20 414 -20 hstem
          51 803 vstem
          434 1481 rmoveto
          -63 -154 -142 -153 -178 -87 17 -28 rcurveline
          131 59 135 96 78 91 94 -91 168 -96 164 -59 16 28 rcurveline
          -178 87 -141 153 -64 154 rrcurveto
          endchar
        </CharString>
        <CharString name="asciicircum.smcp">
          -216 endchar
        </CharString>
        <CharString name="asciitilde">
          77 481 109 49 109 hstem
          152 1028 vstem
          440 748 26 callsubr
        </CharString>
        <CharString name="asciitilde.case">
          -142 596 109 49 109 hstem
          41 1028 vstem
          329 863 26 callsubr
        </CharString>
        <CharString name="asciitilde.smcp">
          71 501 109 49 109 hstem
          148 1028 vstem
          436 768 26 callsubr
        </CharString>
        <CharString name="asterisk">
          -244 1060 -20 22 -20 27 -20 22 -20 hstemhm
          428 150 -148 152 hintmask 00000000
          hintmask 01001000
          821 967 rmoveto
          -66 36 -102 18 -138 41 145 43 94 14 65 38 rrcurveto
          51 29 18 32 27 vvcurveto
          11 -4 11 -5 9 vhcurveto
          20 -11 -21 15 -31 hhcurveto
          -20 -24 -7 -16 -29 hvcurveto
          hintmask 00011000
          -64 -38 -66 -80 -105 -99 rrcurveto
          37 147 33 89 75 vvcurveto
          82 -37 29 -37 -37 -39 -29 -82 vhcurveto
          hintmask 00101000
          -76 36 -97 34 -140 vhcurveto
          -109 105 -60 74 -67 38 rrcurveto
          17 -30 -25 7 -20 hhcurveto
          -28 -19 -14 -18 -9 hvcurveto
          -6 -10 -4 -12 -13 vvcurveto
          hintmask 10001000
          -28 18 -32 47 -28 vhcurveto
          66 -36 101 -18 139 -41 -144 -43 -94 -14 -66 -38 rrcurveto
          -50 -30 -18 -31 -27 vvcurveto
          -11 4 -11 5 -9 vhcurveto
          -20 11 21 -15 30 hhcurveto
          20 25 7 16 28 hvcurveto
          hintmask 00010100
          65 37 65 80 106 100 rrcurveto
          -37 -148 -33 -88 -76 vvcurveto
          -84 37 -26 35 39 39 28 82 2 vhcurveto
          -2 74 -35 97 -35 141 109 -105 61 -73 65 -37 rrcurveto
          -17 30 25 -7 20 hhcurveto
          28 19 14 18 10 hvcurveto
          6 10 4 12 13 vvcurveto
          hintmask 01001000
          28 -18 32 -48 28 vhcurveto
          endchar
        </CharString>
        <CharString name="at">
          546 -330 265 callsubr
          352 37 hstemhm
          100 214 callgsubr
          hintmask 1101111110000000
          1135 -39 callgsubr
        </CharString>
        <CharString name="at.case">
          546 -219 265 callsubr
          -29 -20 401 37 hstemhm
          100 214 callgsubr
          hintmask 1101011111000000
          1135 164 rmoveto
          260 334 291 461 399 -283 164 -356 -551 -439 -524 -551 -434 273 -189 381 182 154 49 72 102 hvcurveto
          -14 27 rlineto
          -80 -134 -141 -31 -147 hhcurveto
          -353 -262 168 422 555 449 479 502 321 275 -145 -379 -453 -328 -250 -158 -40 -20 14 39 18 4 23 9 29 hvcurveto
          hintmask 1100111111000000
          172 752 rlineto
          -23 -53 -68 -6 -63 hhcurveto
          -16 -80 rlineto
          hintmask 1011011111000000
          79 -17 -57 30 -74 hhcurveto
          -234 -253 -367 -311 -139 55 -109 155 143 96 93 196 77 hvcurveto
          -2 vlineto
          -8 -29 -23 -64 -61 vvcurveto
          hintmask 1101011111000000
          -69 30 -64 118 vhcurveto
          hintmask 1011011111000000
          -363 62 rmoveto
          -70 -36 63 135 287 143 332 178 76 45 -36 -91 5 hvcurveto
          -51 -249 rlineto
          -276 -69 -117 -165 -104 hhcurveto
          endchar
        </CharString>
        <CharString name="at.smcp">
          538 -330 265 callsubr
          352 37 hstemhm
          94 214 callgsubr
          hintmask 1101111110000000
          1129 -39 callgsubr
        </CharString>
        <CharString name="atilde">
          90 callsubr
          238 117 20 115 69 callsubr
          hintmask 01101101
          353 11 callgsubr
          hintmask 01111101
          66 callgsubr
          hintmask 01101101
          176 callgsubr
          157 -490 rmoveto
          hintmask 01101011
          -92 callgsubr
          hintmask 01101101
          -205 -86 -125 -72 -162 vvcurveto
          -160 123 -69 137 98 129 37 145 88 vhcurveto
          -96 33 -86 143 87 43 32 43 57 vhcurveto
          hintmask 10101101
          -23 35 rlineto
          -24 -28 -27 -19 -37 hhcurveto
          -47 -16 31 66 hvcurveto
          569 vlineto
          145 -17 76 -65 66 vhcurveto
          hintmask 01101101
          47 -47 -86 30 -115 hhcurveto
          145 -860 rmoveto
          -112 -69 -80 -43 -82 hhcurveto
          -94 -70 57 123 158 109 59 90 43 hvcurveto
          129 63 45 21 22 33 rrcurveto
          endchar
        </CharString>
        <CharString name="atilde.smcp">
          90 callgsubr
          215 109 49 108 197 callsubr
          382 1608 rmoveto
          138 108 -158 152 hhcurveto
          114 82 82 135 31 hvcurveto
          -35 10 rlineto
          -88 -29 -51 -30 -63 -137 -109 157 -152 hhcurveto
          -114 -82 -82 -135 -31 hvcurveto
          35 -10 rlineto
          88 29 49 31 65 hhcurveto
          265 -353 -104 callgsubr
        </CharString>
        <CharString name="b">
          -99 -29 47 -30 -21 36 -21 1040 61 455 37 hstemhm
          164 313 callsubr
          hintmask 10011110
          668 303 callsubr
          740 34 callgsubr
          -1258 vlineto
          hintmask 00111110
          -41 -4 -41 -10 -36 vhcurveto
          hintmask 01011110
          34 -15 146 124 rlineto
          hintmask 10011110
          77 callgsubr
        </CharString>
        <CharString name="b.smcp">
          -29 callgsubr
        </CharString>
        <CharString name="backslash">
          -490 -8 -21 1508 -20 hstem
          68 624 vstem
          135 261 callsubr
          -67 hlineto
          557 -1508 rlineto
          67 hlineto
          endchar
        </CharString>
        <CharString name="bar">
          -797 -378 -21 hstem
          186 82 vstem
          268 -399 rmoveto
          2156 -82 -2156 vlineto
          endchar
        </CharString>
        <CharString name="blacksquare">
          -50 104 852 hstem
          195 813 306 callgsubr
          endchar
        </CharString>
        <CharString name="blacksquare.case">
          -33 303 852 hstem
          182 854 vstem
          1036 303 rmoveto
          852 -854 -852 vlineto
          endchar
        </CharString>
        <CharString name="blacksquare.smcp">
          16 197 852 hstem
          207 854 vstem
          1061 197 rmoveto
          852 -854 -852 vlineto
          endchar
        </CharString>
        <CharString name="braceleft">
          307 callsubr
          221 185 vstem
          569 279 callsubr
          -260 -88 -113 -361 -385 -31 -104 -124 -8 hvcurveto
          -11 -37 11 hlineto
          124 -10 31 -105 -383 vvcurveto
          -377 88 -104 260 vhcurveto
          39 vlineto
          -133 2 -30 37 403 vvcurveto
          367 -140 104 -153 45 vhcurveto
          153 45 140 103 368 vvcurveto
          388 30 43 133 4 vhcurveto
          endchar
        </CharString>
        <CharString name="braceleft.case">
          -615 -152 39 822 36 818 39 hstem
          225 191 vstem
          580 279 callsubr
          -261 -94 -107 -293 -352 -30 -96 -125 -9 hvcurveto
          -11 -36 11 hlineto
          125 -11 30 -96 -350 vvcurveto
          -311 94 -93 261 vhcurveto
          39 vlineto
          -134 2 -30 33 330 vvcurveto
          338 -125 96 -174 41 vhcurveto
          174 41 125 94 340 vvcurveto
          314 30 43 134 4 vhcurveto
          endchar
        </CharString>
        <CharString name="braceleft.smcp">
          302 callgsubr
          231 185 vstem
          580 1364 rmoveto
          -261 -88 -90 -248 -303 -30 -70 -125 -8 hvcurveto
          -10 -37 10 hlineto
          125 -8 30 -70 -303 vvcurveto
          -252 88 -94 261 vhcurveto
          39 vlineto
          -134 4 -30 41 262 vvcurveto
          297 -140 68 -153 35 vhcurveto
          153 35 140 67 297 vvcurveto
          258 30 37 134 4 vhcurveto
          endchar
        </CharString>
        <CharString name="braceright">
          307 callsubr
          217 185 vstem
          54 1563 rmoveto
          133 -4 30 -43 -388 vvcurveto
          -368 140 -103 153 -45 vhcurveto
          -153 -45 -140 -104 -367 vvcurveto
          -403 -30 -37 -133 -2 vhcurveto
          -39 vlineto
          260 88 104 377 383 31 105 124 10 hvcurveto
          11 37 -11 hlineto
          -124 8 -31 104 385 vvcurveto
          361 -88 113 -260 vhcurveto
          endchar
        </CharString>
        <CharString name="braceright.case">
          -615 -152 39 822 36 818 39 hstem
          221 191 vstem
          57 1563 rmoveto
          134 -4 30 -43 -314 vvcurveto
          -340 125 -94 174 -41 vhcurveto
          -174 -41 -125 -96 -338 vvcurveto
          -330 -30 -33 -134 -2 vhcurveto
          -39 vlineto
          261 94 93 311 350 30 96 125 11 hvcurveto
          11 36 -11 hlineto
          -125 9 -30 96 352 vvcurveto
          293 -94 107 -261 vhcurveto
          endchar
        </CharString>
        <CharString name="braceright.smcp">
          302 callgsubr
          233 185 vstem
          69 1325 rmoveto
          134 -4 30 -37 -258 vvcurveto
          -297 140 -67 153 -35 vhcurveto
          -153 -35 -140 -68 -297 vvcurveto
          -262 -30 -41 -134 -4 vhcurveto
          -39 vlineto
          261 88 94 252 303 30 70 125 8 hvcurveto
          10 37 -10 hlineto
          -125 8 -30 70 303 vvcurveto
          248 -88 90 -261 vhcurveto
          endchar
        </CharString>
        <CharString name="bracketleft">
          336 callgsubr
          188 185 vstem
          539 1542 rmoveto
          39 -351 -1952 351 39 -166 1874 vlineto
          endchar
        </CharString>
        <CharString name="bracketleft.case">
          333 callgsubr
          193 190 vstem
          549 1542 rmoveto
          39 -356 -1712 356 39 -166 1634 vlineto
          endchar
        </CharString>
        <CharString name="bracketleft.smcp">
          335 callgsubr
          203 184 vstem
          553 1317 rmoveto
          39 -350 -1467 350 39 -166 1389 vlineto
          endchar
        </CharString>
        <CharString name="bracketright">
          336 callgsubr
          233 185 vstem
          418 1581 rmoveto
          -351 -39 166 -1874 -166 -39 351 hlineto
          endchar
        </CharString>
        <CharString name="bracketright.case">
          333 callgsubr
          235 190 vstem
          425 1581 rmoveto
          -356 -39 166 -1634 -166 -39 356 hlineto
          endchar
        </CharString>
        <CharString name="bracketright.smcp">
          335 callgsubr
          246 184 vstem
          430 1356 rmoveto
          -350 -39 166 -1389 -166 -39 350 hlineto
          endchar
        </CharString>
        <CharString name="breve">
          -375 1296 121 hstem
          72 733 vstem
          770 -14 callsubr
          endchar
        </CharString>
        <CharString name="breve.case">
          -334 1602 127 hstem
          51 815 vstem
          842 1862 rmoveto
          -11 callsubr
          137 callsubr
          endchar
        </CharString>
        <CharString name="breve.smcp">
          -334 1436 127 hstem
          72 774 vstem
          821 1696 rmoveto
          -11 callgsubr
          198 127 131 106 62 hvcurveto
          endchar
        </CharString>
        <CharString name="brevecy">
          -416 1296 41 hstem
          41 221 311 222 vstem
          686 1626 rmoveto
          157 callsubr
          hvcurveto
          -59 -55 -112 -15 -74 hhcurveto
          -74 -113 15 59 -55 330 callgsubr
          37 58 vvcurveto
          69 -51 41 -61 -64 -45 -45 -63 -58 39 -51 57 -39 vhcurveto
          -39 58 88 -35 135 hhcurveto
          135 88 35 39 57 hvcurveto
          58 39 39 51 58 vvcurveto
          63 -45 45 -64 vhcurveto
          endchar
        </CharString>
        <CharString name="brevecy.case">
          -334 1602 40 hstem
          41 243 callsubr
          vstem
          768 1931 rmoveto
          157 callsubr
          hvcurveto
          -59 -63 -133 -15 -86 hhcurveto
          -86 -133 15 59 -64 330 callgsubr
          37 58 vvcurveto
          69 -49 41 -63 -64 -45 -43 -69 -58 31 -41 67 -41 vhcurveto
          -43 72 106 -34 142 hhcurveto
          141 107 34 43 71 hvcurveto
          68 41 31 41 58 vvcurveto
          69 -46 43 -63 vhcurveto
          endchar
        </CharString>
        <CharString name="brevecy.smcp">
          -334 1452 41 hstem
          41 243 callsubr
          vstem
          768 1782 rmoveto
          217 callsubr
          hvcurveto
          -60 -63 -133 -14 -86 hhcurveto
          -86 -133 14 60 -64 330 callgsubr
          37 57 329 callgsubr
          -63 -64 -45 -43 -70 -57 31 -41 67 -41 vhcurveto
          -43 72 106 -35 142 hhcurveto
          141 107 35 43 71 hvcurveto
          68 41 31 41 57 vvcurveto
          70 -46 43 -63 vhcurveto
          endchar
        </CharString>
        <CharString name="brokenbar">
          -793 -378 -21 hstem
          188 82 vstem
          270 786 rmoveto
          971 -82 -971 vlineto
          82 -1185 rmoveto
          1067 -82 -1067 vlineto
          endchar
        </CharString>
        <CharString name="bullet">
          -349 260 337 callsubr
          844 65 callgsubr
        </CharString>
        <CharString name="bullet.case">
          -353 434 584 hstem
          158 583 vstem
          449 1018 65 callgsubr
        </CharString>
        <CharString name="bullet.smcp">
          -349 358 337 callsubr
          942 65 callgsubr
        </CharString>
        <CharString name="c">
          129 callsubr
          571 1083 -75 callgsubr
        </CharString>
        <CharString name="c.smcp">
          48 callgsubr
          721 1274 -94 callsubr
        </CharString>
        <CharString name="cacute">
          -257 -29 88 988 36 162 -20 hstem
          94 199 391 221 vstem
          758 -90 callsubr
          -187 -582 -75 callgsubr
        </CharString>
        <CharString name="cacute.loclPLK">
          -257 -29 88 988 36 341 callgsubr
          270.399993896 298 callgsubr
          -72 221 hintmask 11110000
          713 -50 callgsubr
          -142 -592 93 callgsubr
          hintmask 11101000
          78 79 -37 -49 27 hvcurveto
          -47 -13 -39 -39 -61 vvcurveto
          -66 51 -37 62 61 47 41 74 62 -35 55 -61 41 vhcurveto
          hintmask 11110000
          43 -66 -86 22 -86 hhcurveto
          endchar
        </CharString>
        <CharString name="cacute.loclPLK.smcp">
          48 callgsubr
          788 -47 callsubr
          -67 -516 -94 callsubr
        </CharString>
        <CharString name="cacute.smcp">
          48 callgsubr
          900 -88 callgsubr
          -179 -491 -94 callsubr
        </CharString>
        <CharString name="caron">
          305 callsubr
          756 -49 callgsubr
          endchar
        </CharString>
        <CharString name="caron.case">
          -388 1597 299 hstem
          31 803 vstem
          823 -58 callsubr
          endchar
        </CharString>
        <CharString name="caron.smcp">
          -388 1434 299 hstem
          51 762 vstem
          803 -57 callgsubr
          endchar
        </CharString>
        <CharString name="ccaron">
          129 callsubr
          863 -49 callgsubr
          -308 -531 -75 callgsubr
        </CharString>
        <CharString name="ccaron.smcp">
          48 callgsubr
          1069 -57 callgsubr
          -358 -430 -94 callsubr
        </CharString>
        <CharString name="ccedilla">
          -257 147 callgsubr
          104 88 -61 -21 1070 36 341 callgsubr
          311 131 -51 221 hintmask 11101101
          547 -29 rmoveto
          219 117 152 133 41 hvcurveto
          -39 14 rlineto
          -155 -72 -119 -56 -106 hhcurveto
          -158 -137 123 363 387 158 115 135 78 79 -37 -49 27 hvcurveto
          -47 -13 -39 -39 -61 vvcurveto
          -66 51 -37 62 61 47 41 74 62 -35 55 -61 41 vhcurveto
          43 -66 -86 22 -86 hhcurveto
          -280 -197 315 callsubr
          hvcurveto
          hintmask 11011110
          -305 162 -197 219 -35 vhcurveto
          -58 -174 rlineto
          44 callsubr
          hintmask 11101101
          39 118 rlineto
          endchar
        </CharString>
        <CharString name="ccedilla.smcp">
          65 147 callgsubr
          104 41 -40 40 9 -21 1233 41 -29 -20 127 callsubr
          496 131 178 47 -24 39 hintmask 1101010101000000
          1135 451 rmoveto
          -21 -146 -20 -65 -54 -72 rrcurveto
          -105 -77 -119 -51 -117 hhcurveto
          -229 -183 211 395 383 156 232 242 116 111 -53 -103 78 hvcurveto
          51 -67 23 -45 28 -150 rrcurveto
          47 hlineto
          hintmask 1101001101000000
          217 2 121 7 92 vhcurveto
          -48 hlineto
          -83 -7 -16 -41 -29 hhcurveto
          -11 -13 7 13 -16 hvcurveto
          hintmask 1101010111000000
          69 -82 -86 64 -147 hhcurveto
          -356 -254 -266 -398 -393 226 -230 344 -15 hvcurveto
          -56 -169 rlineto
          -68 callgsubr
          hintmask 1110010100100000
          41 118 144 5 87 60 83 68 rlinecurve
          13 16 13 7 12 hhcurveto
          hintmask 1100110100100000
          28 16 -41 -83 7 20 callgsubr
          -6 96 -2 127 228 vvcurveto
          endchar
        </CharString>
        <CharString name="ccircumflex">
          129 callsubr
          520 -69 callgsubr
          14 -559 -75 callgsubr
        </CharString>
        <CharString name="ccircumflex.smcp">
          323 callgsubr
          254 321 callsubr
          hintmask 10101110
          684 -73 callsubr
          -475 vmoveto
          -356 -254 -266 -398 -407 243 -232 365 hvcurveto
          hintmask 10101101
          155 91 62 71 86 hvcurveto
          13 16 13 7 12 hhcurveto
          hintmask 01101101
          28 16 -41 -83 7 20 callgsubr
          -6 96 -2 127 228 vvcurveto
          -47 hlineto
          -21 -146 -20 -65 -54 -72 rrcurveto
          hintmask 10101110
          -105 -77 -119 -51 -117 hhcurveto
          -229 -183 211 395 383 156 232 242 116 111 -53 -103 78 hvcurveto
          51 -67 23 -45 28 -150 rrcurveto
          47 hlineto
          hintmask 10011110
          217 2 121 7 92 vhcurveto
          -48 hlineto
          -83 -7 -16 -41 -29 hhcurveto
          -11 -13 7 13 -16 hvcurveto
          hintmask 10101110
          69 -82 -86 64 -147 hhcurveto
          endchar
        </CharString>
        <CharString name="cdotaccent">
          -257 -29 88 988 36 222 262 341 callgsubr
          144 262 -15 221 hintmask 11111000
          568 1567 rmoveto
          2 callgsubr
          3 -484 93 callgsubr
          hintmask 11110100
          78 79 -37 -49 27 hvcurveto
          -47 -13 -39 -39 -61 vvcurveto
          -66 51 -37 62 61 47 41 74 62 -35 55 -61 41 vhcurveto
          hintmask 11111000
          43 -66 -86 22 -86 hhcurveto
          endchar
        </CharString>
        <CharString name="cdotaccent.smcp">
          323 callgsubr
          225 262 127 callsubr
          254 262 289 47 -24 39 hintmask 1010111100000000
          700 1712 24 callsubr
          21 -438 rmoveto
          -356 -254 -266 -398 -407 243 -232 365 hvcurveto
          hintmask 1010111010000000
          155 91 62 71 86 hvcurveto
          13 16 13 7 12 hhcurveto
          hintmask 0110111010000000
          28 16 -41 -83 7 20 callgsubr
          -6 96 -2 127 228 vvcurveto
          -47 hlineto
          -21 -146 -20 -65 -54 -72 rrcurveto
          hintmask 1010111100000000
          -105 -77 -119 -51 -117 hhcurveto
          -229 -183 211 395 383 156 232 242 116 111 -53 -103 78 hvcurveto
          51 -67 23 -45 28 -150 rrcurveto
          47 hlineto
          hintmask 1001111100000000
          217 2 121 7 92 vhcurveto
          -48 hlineto
          -83 -7 -16 -41 -29 hhcurveto
          -11 -13 7 13 -16 hvcurveto
          hintmask 1010111100000000
          69 -82 -86 64 -147 hhcurveto
          endchar
        </CharString>
        <CharString name="cedilla">
          -785 147 callgsubr
          hstem
          291 131 vstem
          229 12 rmoveto
          -55 hlineto
          -70 -209 rlineto
          44 callsubr
          endchar
        </CharString>
        <CharString name="cedilla.case">
          -748 147 callgsubr
          hstem
          305 131 vstem
          244 10 rmoveto
          -56 hlineto
          -69 -207 rlineto
          -68 callgsubr
          endchar
        </CharString>
        <CharString name="cedilla.smcp">
          -785 147 callgsubr
          hstem
          305 131 vstem
          244 10 rmoveto
          -56 hlineto
          -69 -207 rlineto
          -68 callgsubr
          endchar
        </CharString>
        <CharString name="cent">
          -281 -350 -21 342 88 988 36 367 -20 hstem
          69 199 230 45 116 221 vstem
          860 325 callsubr
          -20 1 rlineto
          986 vlineto
          18 1 rlineto
          78 79 -37 -49 27 hvcurveto
          -47 -13 -39 -39 -61 vvcurveto
          -66 51 -37 62 61 47 41 74 62 -35 55 -61 41 vhcurveto
          43 -66 -86 22 -86 hhcurveto
          -3 367 -45 -369 hlineto
          -254 -25 -175 -226 -316 vvcurveto
          -327 187 -203 242 -12 vhcurveto
          -343 45 342 vlineto
          206 10 110 146 40 129 rrcurveto
          -631 289 rmoveto
          328 113 132 117 33 vhcurveto
          -971 vlineto
          -129 31 -101 135 312 vvcurveto
          endchar
        </CharString>
        <CharString name="cent.smcp">
          -148 94 37 931 -20 72 37 303 -20 hstemhm
          68 204 275 41 325 48 -25 39 hintmask 11111110
          928 492 rmoveto
          -21 -136 -18 -63 -55 -64 rrcurveto
          -67 -58 -90 -31 -84 hhcurveto
          -14 983 hlineto
          84 84 -35 -63 55 hvcurveto
          53 -64 21 -41 28 -137 rrcurveto
          48 hlineto
          187 2 102 6 80 12 callsubr
          -53 -8 -19 -28 -30 hhcurveto
          -11 -12 3 8 -13 hvcurveto
          -59 38 -69 37 -113 3 rrcurveto
          303 -41 -304 vlineto
          -265 -14 -214 -213 -313 vvcurveto
          -324 209 -181 270 -10 vhcurveto
          -304 41 303 vlineto
          hintmask 11111101
          118 3 73 38 65 39 rrcurveto
          8 14 13 3 10 hhcurveto
          31 17 -30 -53 7 20 callgsubr
          -6 84 -2 109 197 vvcurveto
          -703 126 rmoveto
          287 106 181 169 25 vhcurveto
          -975 vlineto
          -156 32 -119 166 284 vvcurveto
          endchar
        </CharString>
        <CharString name="circumflex">
          305 callsubr
          393 -69 callgsubr
          endchar
        </CharString>
        <CharString name="circumflex.case">
          -388 1577 299 hstem
          31 803 vstem
          414 1876 -76 callsubr
          endchar
        </CharString>
        <CharString name="circumflex.smcp">
          -388 1479 -20 hstem
          51 762 vstem
          414 -73 callsubr
          endchar
        </CharString>
        <CharString name="colon">
          -707 -8 -21 1110 -20 hstem
          141 262 vstem
          272 1081 rmoveto
          -73 callgsubr
          -848 vmoveto
          107 callgsubr
        </CharString>
        <CharString name="comma">
          -717 -8 -21 48 -21 hstemhm
          340 74 hintmask 01100000
          258 233 277 callsubr
          hvcurveto
          hintmask 10100000
          -82 59 -49 72 29 26 11 16 21 vhcurveto
          -49 callsubr
          hintmask 01100000
          272 callgsubr
          endchar
        </CharString>
        <CharString name="commaaccentcomb">
          -1252 192 callgsubr
          hstemhm
          281 55 hintmask 00000000
          hintmask 11000000
          203 -141 -93 callsubr
        </CharString>
        <CharString name="commaaccentcomb.case">
          -1252 192 callgsubr
          hstemhm
          281 55 hintmask 00000000
          hintmask 11000000
          203 -141 -57 callsubr
        </CharString>
        <CharString name="commaaccentcomb.smcp">
          -822 192 callgsubr
          hstemhm
          281 55 hintmask 00000000
          hintmask 11000000
          203 -141 -93 callsubr
        </CharString>
        <CharString name="copyright">
          579 -29 66 194 88 988 36 193 66 hstem
          100 82 289 199 391 221 367 82 vstem
          915 279 callsubr
          -450 -365 -365 -451 -450 365 -365 450 451 365 365 450 451 -365 365 -451 hvcurveto
          -66 vmoveto
          406 328 -336 -414 -413 -328 -336 -406 -405 -328 336 413 414 328 336 405 hvcurveto
          35 -193 rmoveto
          -284 -195 335 callsubr
          256 217 117 152 133 40 hvcurveto
          -38 14 rlineto
          -155 -72 -119 -56 -108 hhcurveto
          -156 -137 127 353 221 49 133 67 74 hvcurveto
          57 54 63 23 60 hhcurveto
          77 80 -37 -49 27 hvcurveto
          -51 -11 -35 -36 -58 vvcurveto
          -69 51 -41 62 61 47 41 73 64 -33 51 -53 37 vhcurveto
          47 -63 -91 24 -92 hhcurveto
          endchar
        </CharString>
        <CharString name="currency">
          -156 227 76 625 76 hstem
          160 84 608 84 vstem
          942 950 21 callgsubr
        </CharString>
        <CharString name="currency.smcp">
          -158 260 76 625 76 hstem
          158 84 608 84 vstem
          940 983 21 callgsubr
        </CharString>
        <CharString name="d">
          215 callgsubr
          457 37 293 callsubr
          hintmask 10001111
          991 1606 79 callsubr
          -398 67 callsubr
          hintmask 01001111
          -182 vlineto
          hintmask 00101111
          131 callsubr
          hintmask 00011111
          41 43 -2 -4 43 hvcurveto
          hintmask 00101111
          51 callsubr
          hintmask 10001111
          -416 -190 58 callsubr
        </CharString>
        <CharString name="d.smcp">
          236 callsubr
          645 1245 23 callgsubr
        </CharString>
        <CharString name="dagger">
          -478 1253 93 hstemhm
          311 152 -111.429992676 71.0899963379 hintmask 10100000
          387 257 callsubr
          16 hlineto
          28 49 -41 262 46 hhcurveto
          33 -11 60 -51 vhcurveto
          318 -414 rmoveto
          -78 51 -240 -51 -240 51 -77 -51 77 -51 240 49 240 -49 rlineto
          hintmask 11000000
          -240 22 rmoveto
          -29 -12 -14 -41 2 -39 -35 -23 rlinecurve
          -219 11 -770 65 -118 vhcurveto
          64 118 12 770 219 vvcurveto
          -35 23 0 39 -12 41 rrcurveto
          endchar
        </CharString>
        <CharString name="daggerdbl">
          -453 -340 92 1501 93 hstemhm
          324 151 -111.429992676 71.8300018311 hintmask 11010000
          399 257 callsubr
          17 hlineto
          28 49 -41 262 45 hhcurveto
          33 -10 60 -52 vhcurveto
          318 -414 225 callgsubr
          hintmask 11100000
          -240 22 rmoveto
          -28 -12 -15 -41 2 -39 -34 -23 rlinecurve
          0 -96 2 23 8 -207 -8 -207 -2 12 -96 flex1
          34 -22 -2 -39 15 -41 28 -13 rcurveline
          29 13 12 41 0 39 35 22 rlinecurve
          0 96 -2 -12 -8 207 8 209 2 -25 96 flex1
          -35 23 0 39 -12 41 rrcurveto
          289 -817 225 callgsubr
          hintmask 11010000
          -248 20 rmoveto
          -29 -49 41 -262 -45 hhcurveto
          -33 10 -59 51 52 10 59 33 vhcurveto
          -45 41 262 29 -49 hvcurveto
          endchar
        </CharString>
        <CharString name="dcaron">
          215 callgsubr
          457 37 -37 42 293 callsubr
          162 125 hintmask 1000110110000000
          991 1606 79 callsubr
          -398 67 callsubr
          hintmask 0100110110000000
          -182 vlineto
          hintmask 0010110110000000
          131 callsubr
          hintmask 0001110110000000
          41 43 -2 -4 43 hvcurveto
          hintmask 0010101111000000
          51 callsubr
          149 930 rmoveto
          84 176 54 113 80 vvcurveto
          24 -5 45 -6 15 vhcurveto
          -13 -33 -35 -11 -54 hhcurveto
          -10 -11 0 1 -12 hvcurveto
          -43 vlineto
          34 7 -29 -53 -37 -9 -75 -32 -185 hvcurveto
          hintmask 1000110110000000
          -537 -1128 58 callsubr
        </CharString>
        <CharString name="dcaron.smcp">
          236 callsubr
          1014 -57 callgsubr
          -379 -459 23 callgsubr
        </CharString>
        <CharString name="dcroat">
          215 callgsubr
          162 41 254 37 293 callsubr
          hintmask 1000111110000000
          991 278 callsubr
          176 41 -176 320 hlineto
          -72 callgsubr
          -74 -365 -41 365 -283 67 callsubr
          hintmask 0100111110000000
          -182 vlineto
          hintmask 0010111110000000
          131 callsubr
          hintmask 0001111110000000
          41 43 -2 -4 43 hvcurveto
          hintmask 0010111110000000
          51 callsubr
          hintmask 1000111110000000
          -416 -190 58 callsubr
        </CharString>
        <CharString name="dcroat.smcp">
          -4 callgsubr
        </CharString>
        <CharString name="degree">
          -570 1186 35 424 34 hstem
          92 51 396 51 vstem
          340 1679 rmoveto
          -131 -117 -94 -151 -154 117 -94 131 133 117 94 154 151 -117 94 -133 hvcurveto
          -34 vmoveto
          92 107 -74 -139 -144 -107 -67 -92 -92 -105 67 144 139 105 74 92 hvcurveto
          endchar
        </CharString>
        <CharString name="dieresis">
          -453 1284 238 hstemhm
          63 197 callgsubr
          hintmask 00000000
          hintmask 11100000
          182 -37 callgsubr
          endchar
        </CharString>
        <CharString name="dieresis.case">
          -478 1581 238 hstemhm
          51 111 callgsubr
          hintmask 11100000
          170 -12 callsubr
          endchar
        </CharString>
        <CharString name="dieresis.smcp">
          -478 1462 238 hstemhm
          51 111 callgsubr
          hintmask 11100000
          170 -13 callgsubr
          endchar
        </CharString>
        <CharString name="divide">
          77 317 228 151 62 151 226 hstem
          551 227 vstem
          664 1135 rmoveto
          -62 -51 -52 -61 -64 51 -49 62 63 51 49 64 61 -51 52 -63 hvcurveto
          512 -439 270 callsubr
          514 -151 rmoveto
          -62 -51 -51 -62 -63 51 -52 62 63 51 52 63 62 -51 51 -63 hvcurveto
          endchar
        </CharString>
        <CharString name="dollar">
          -181 -29 41 -16 -21 24 -21 24 -21 26 -21 1448 20 -20 39 -15 -20 26 -20 24 -20 hstemhm
          119 47 -45 153 160 41 131 41 158 182 -127 47 hintmask 0000000000000000
          hintmask 1000001000101110
          987 360 rmoveto
          210 -142 108 -198 125 vhcurveto
          608 vlineto
          hintmask 1000000100101101
          140 -58 62 -158 11 -155 rrcurveto
          47 hlineto
          258 4 88 7 72 vhcurveto
          -48 hlineto
          hintmask 1000010000101101
          -59 -8 -10 -31 -27 hhcurveto
          -18 -19 8 21 -32 hvcurveto
          -31 21 -32 21 -46 15 rrcurveto
          266 -41 vlineto
          hintmask 1000000010101101
          -256 vlineto
          hintmask 1000001000101101
          6 -28 -33 3 -39 hhcurveto
          -31 -1 rlineto
          248 -41 vlineto
          hintmask 1000000001011101
          -252 vlineto
          -172 -24 -141 -113 -213 vvcurveto
          -210 141 -111 172 -107 vhcurveto
          -665 vlineto
          hintmask 0000101000101101
          -184 51 -70 189 -14 212 rrcurveto
          -47 hlineto
          -289 -2 -118 -6 -84 vhcurveto
          47 hlineto
          hintmask 0001001000101101
          59 8 10 31 27 hhcurveto
          16 21 -8 -21 32 hvcurveto
          41 -25 48 -26 73 -15 rrcurveto
          -251 41 vlineto
          hintmask 0100001000101101
          245 vlineto
          hintmask 1000001000101101
          -2 24 25 -2 29 hhcurveto
          18 18 1 1 17 hvcurveto
          -243 41 vlineto
          hintmask 0010001000101101
          248 vlineto
          hintmask 1000001000101110
          193 30 147 127 225 vvcurveto
          hintmask 1000001000011110
          -463 1074 rmoveto
          30 27 -3 -7 25 hvcurveto
          -596 vlineto
          -46 29 -44 26 -41 26 rrcurveto
          521 vlineto
          3 16 16 1 17 hhcurveto
          -250 -238 rmoveto
          110 64 83 96 31 vhcurveto
          -483 vlineto
          -95 67 -65 73 119 vvcurveto
          265 -1184 rmoveto
          -23 -21 2 3 -20 hvcurveto
          648 vlineto
          10 -6 44 -26 40 -25 37 -26 rlinecurve
          -563 vlineto
          -5 -22 -22 -2 -23 hhcurveto
          108 541 rmoveto
          98 -75 60 -80 -113 vvcurveto
          -139 -69 -81 -89 -34 vhcurveto
          endchar
        </CharString>
        <CharString name="dollar.smcp">
          -169 -29 41 -15 -21 22 -21 26 -21 25 -21 1249 39 -18 -20 24 -20 26 -20 23 -20 205 -20 hstemhm
          129 47 -45 154 155 41 131 41 148 182 -113 48 -37 47 hintmask 000000000000000000000000
          hintmask 100001000011011100000000
          983 319 rmoveto
          175 -140 99 -190 104 vhcurveto
          519 vlineto
          hintmask 100000010011011010000000
          143 -50 63 -143 11 -140 rrcurveto
          48 hlineto
          233 4 80 6 64 vhcurveto
          hintmask 100000010011011001000000
          -47 hlineto
          hintmask 100000100011011001000000
          -58 -9 -10 -33 -26 hhcurveto
          -19 -18 9 20 -33 hvcurveto
          -32 21 -33 22 -48 15 rrcurveto
          198 -41 vlineto
          hintmask 100000001011011010000000
          -188 vlineto
          hintmask 100001000011011010000000
          5 -27 -32 3 -37 hhcurveto
          -12 -11 0 -1 -12 hvcurveto
          181 -41 vlineto
          hintmask 100000000110111010000000
          -185 vlineto
          -170 -24 -139 -105 -186 vvcurveto
          -187 140 -101 169 -89 vhcurveto
          -552 vlineto
          hintmask 000011000011011010000000
          -180 48 -70 171 -14 192 rrcurveto
          -47 hlineto
          -264 -2 -111 -6 -75 vhcurveto
          47 hlineto
          hintmask 000101000011011010000000
          59 8 10 31 27 hhcurveto
          16 21 -8 -21 33 hvcurveto
          40 -25 47 -25 70 -15 rrcurveto
          -191 41 vlineto
          hintmask 010001000011011010000000
          185 vlineto
          hintmask 100001000011011010000000
          -3 25 27 -2 30 hhcurveto
          17 16 1 1 16 hvcurveto
          -182 41 vlineto
          hintmask 001001000011011010000000
          186 vlineto
          hintmask 100001000011011100000000
          186 28 144 114 200 vvcurveto
          hintmask 100001000010111100000000
          -448 916 rmoveto
          28 25 -3 -5 24 hvcurveto
          -508 vlineto
          -4 2 -45 25 -43 23 -39 22 rlinecurve
          440 vlineto
          3 17 18 1 19 hhcurveto
          -250 -203 rmoveto
          90 61 71 94 29 vhcurveto
          -407 vlineto
          -92 56 -63 60 101 vvcurveto
          264 -1020 rmoveto
          -24 -23 2 3 -21 hvcurveto
          539 vlineto
          48 -25 44 -23 39 -23 rrcurveto
          -467 vlineto
          -4 -21 -21 -2 -21 hhcurveto
          104 448 rmoveto
          92 -60 56 -64 -92 vvcurveto
          -117 -66 -68 -82 -30 vhcurveto
          endchar
        </CharString>
        <CharString name="dotaccent">
          -846 1305 266 callgsubr
          1567 rmoveto
          2 callgsubr
          endchar
        </CharString>
        <CharString name="dotaccent.case">
          -846 1581 266 callgsubr
          1843 24 callsubr
          endchar
        </CharString>
        <CharString name="dotaccent.smcp">
          -846 1450 266 callgsubr
          1712 24 callsubr
          endchar
        </CharString>
        <CharString name="dotlessi">
          56 callsubr
          hstemhm
          215 184 hintmask 10011000
          399 1077 rmoveto
          hintmask 11011000
          -20 -32 callgsubr
          hintmask 10101000
          -68 callsubr
          hintmask 11011000
          -43 vlineto
          119 37 -58 -123 hvcurveto
          -641 161 callsubr
        </CharString>
        <CharString name="dotlessj">
          156 callgsubr
          hstemhm
          -131 213 119 184 hintmask 10010100
          385 1077 rmoveto
          hintmask 11010100
          -20 -32 callgsubr
          hintmask 10100100
          -68 callsubr
          hintmask 11011100
          -44 callgsubr
        </CharString>
        <CharString name="e">
          59 callsubr
          119 callgsubr
          907 262 rmoveto
          86 callsubr
          -102 callgsubr
        </CharString>
        <CharString name="e.smcp">
          50 callgsubr
          hstemhm
          252 274 callgsubr
          1094 242 rmoveto
          57 2 98 callsubr
          -23 -72 -86 -200 hhcurveto
          -150 hlineto
          -107 callsubr
          hintmask 11011000
          -95 callgsubr
          hintmask 11101000
          80 callgsubr
          endchar
        </CharString>
        <CharString name="eacute">
          59 callsubr
          162 -20 119 callgsubr
          774 1538 rmoveto
          -43 callgsubr
          10 -13 -15 5 -17 hhcurveto
          -25 -28 -13 -33 -25 hvcurveto
          -61 -80 -35 -110 -127 -199 22 -18 rcurveline
          162 172 99 247 callgsubr
          133 -1276 rmoveto
          86 callsubr
          -102 callgsubr
        </CharString>
        <CharString name="eacute.smcp">
          50 callgsubr
          hstemhm
          252 274 callgsubr
          894 -52 callgsubr
          200 -1390 rmoveto
          57 2 98 callsubr
          -23 -72 -86 -200 hhcurveto
          -150 hlineto
          -107 callsubr
          hintmask 11011000
          -95 callgsubr
          hintmask 11101000
          80 callgsubr
          endchar
        </CharString>
        <CharString name="ebreve">
          59 callsubr
          213 121 119 callgsubr
          553 120 callgsubr
          354 -1034 rmoveto
          86 callsubr
          -102 callgsubr
        </CharString>
        <CharString name="ebreve.smcp">
          50 callgsubr
          191 127 -19 callsubr
          hintmask 11101100
          610 1436 rmoveto
          198 127 131 106 62 hvcurveto
          -25 23 rlineto
          -11 callgsubr
          484 -1194 rmoveto
          57 2 98 callsubr
          -23 -72 -86 -200 hhcurveto
          -150 hlineto
          -107 callsubr
          hintmask 11011100
          -95 callgsubr
          hintmask 11101100
          80 callgsubr
          endchar
        </CharString>
        <CharString name="ecaron">
          59 callsubr
          119 callgsubr
          553 1262 rmoveto
          55 137 129 137 158 78 -16 28 rcurveline
          -115 -51 -119 -80 -69 -73 -86 73 -152 80 -147 51 -17 -28 rcurveline
          158 -78 129 -137 55 -137 rrcurveto
          391 -1000 rmoveto
          86 callsubr
          -102 callgsubr
        </CharString>
        <CharString name="ecaron.smcp">
          50 callgsubr
          hstemhm
          252 274 callgsubr
          629 121 callsubr
          502 -1192 rmoveto
          57 2 98 callsubr
          -23 -72 -86 -200 hhcurveto
          -150 hlineto
          -107 callsubr
          hintmask 11011000
          -95 callgsubr
          hintmask 11101000
          80 callgsubr
          endchar
        </CharString>
        <CharString name="ecircumflex">
          59 callsubr
          119 callgsubr
          514 36 callgsubr
          393 -1204 rmoveto
          86 callsubr
          -102 callgsubr
        </CharString>
        <CharString name="ecircumflex.smcp">
          50 callgsubr
          234 -20 -19 callsubr
          hintmask 11101100
          573 4 callgsubr
          521 -1351 rmoveto
          57 2 98 callsubr
          -23 -72 -86 -200 hhcurveto
          -150 hlineto
          -107 callsubr
          hintmask 11011100
          -95 callgsubr
          hintmask 11101100
          80 callgsubr
          endchar
        </CharString>
        <CharString name="edieresis">
          59 callsubr
          201 238 341 callgsubr
          -72 197 callgsubr
          -150 197 hintmask 00000000
          hintmask 11110110
          340 19 callgsubr
          133 -1022 rmoveto
          86 callsubr
          hintmask 11101001
          -102 callgsubr
        </CharString>
        <CharString name="edieresis.smcp">
          50 callgsubr
          217 238 -19 callsubr
          -166 111 callgsubr
          hintmask 11101011
          395 -12 callgsubr
          265 -1220 rmoveto
          57 2 98 callsubr
          -23 -72 -86 -200 hhcurveto
          -150 hlineto
          hintmask 11100100
          -107 callsubr
          hintmask 11010100
          -95 callgsubr
          hintmask 11101011
          80 callgsubr
          endchar
        </CharString>
        <CharString name="edotaccent">
          59 callsubr
          222 262 hstem
          94 199 131 262 57 197 vstem
          555 135 callgsubr
          352 -1043 rmoveto
          86 callsubr
          -102 callgsubr
        </CharString>
        <CharString name="edotaccent.smcp">
          50 callgsubr
          205 262 -19 callsubr
          39 262 hintmask 11101110
          612 1450 235 callsubr
          482 -1208 rmoveto
          57 2 98 callsubr
          -23 -72 -86 -200 hhcurveto
          -150 hlineto
          -107 callsubr
          hintmask 11011110
          -95 callgsubr
          hintmask 11101110
          80 callgsubr
          endchar
        </CharString>
        <CharString name="egrave">
          59 callsubr
          162 -20 119 callgsubr
          649 1 callsubr
          281 -965 rmoveto
          86 callsubr
          -102 callgsubr
        </CharString>
        <CharString name="egrave.smcp">
          50 callgsubr
          232 -20 -19 callsubr
          hintmask 11101100
          307 1632 rmoveto
          225 callsubr
          -23 211 -106 -21 callsubr
          -80 callsubr
          787 -1390 rmoveto
          57 2 98 callsubr
          -23 -72 -86 -200 hhcurveto
          -150 hlineto
          -107 callsubr
          hintmask 11011100
          -95 callgsubr
          hintmask 11101100
          80 callgsubr
          endchar
        </CharString>
        <CharString name="eight">
          -187 218 callsubr
          hstemhm
          106 181 -113 160 389 164 -101 175 hintmask 11100100
          627 820 rmoveto
          hintmask 11011000
          154 104 106 119 155 vvcurveto
          184 -154 97 -184 -211 -164 -129 -191 -181 124 -116 137 -110 vhcurveto
          hintmask 11100100
          -184 -91 -145 -145 -201 vvcurveto
          -231 195 -113 217 256 187 158 233 219 -171 120 -163 119 vhcurveto
          hintmask 11011000
          -101 622 rmoveto
          127 70 -109 -162 -127 -36 -114 -91 -87 hvcurveto
          -138 102 -124 107 171 vvcurveto
          135 84 84 108 vhcurveto
          hintmask 11100100
          4 -1434 rmoveto
          -178 -65 164 174 151 48 135 131 96 hvcurveto
          157 -125 163 -122 -205 vvcurveto
          -174 -118 -94 -138 vhcurveto
          endchar
        </CharString>
        <CharString name="eight.dnom">
          -500 -21 41 820 116 callgsubr
          448 486 -59 callgsubr
        </CharString>
        <CharString name="eight.lf">
          -101 218 callsubr
          hstemhm
          102 181 -107 160 471 164 -94 174 hintmask 11100100
          673 819 rmoveto
          hintmask 11011000
          177 103 121 120 156 vvcurveto
          184 -174 97 -205 -236 -180 -129 -191 -181 142 -116 156 -109 vhcurveto
          hintmask 11100100
          -206 -92 -166 -145 -201 vvcurveto
          -231 222 -113 237 281 209 158 233 218 -193 120 -185 119 vhcurveto
          hintmask 11011000
          -337 404 rmoveto
          135 100 84 133 152 86 -109 -162 -128 -48 -116 -119 -87 vhcurveto
          -159 103 -145 107 173 vvcurveto
          hintmask 11100100
          237 -1215 rmoveto
          -206 -84 164 174 152 65 135 160 96 hvcurveto
          181 -125 188 -122 -206 vvcurveto
          -174 -146 -94 -158 vhcurveto
          endchar
        </CharString>
        <CharString name="eight.numr">
          -500 874 41 820 116 callgsubr
          448 1381 -59 callgsubr
        </CharString>
        <CharString name="eight.subs">
          -498 -305 41 901 116 callgsubr
          447 242 rmoveto
          hintmask 11011000
          115 72 75 69 109 vvcurveto
          124 -115 64 -135 -156 -120 -86 -125 -120 103 -83 95 -64 vhcurveto
          hintmask 11100100
          -136 -63 -110 -78 -141 vvcurveto
          -151 144 -74 158 188 137 102 152 114 -73 68 -170 111 vhcurveto
          hintmask 11011000
          -226 264 rmoveto
          82 66 49 84 98 53 -64 -98 -84 -24 -79 -77 -53 vhcurveto
          -86 55 -114 68 124 vvcurveto
          hintmask 11100100
          154 -770 rmoveto
          -135 -52 98 105 100 42 82 107 62 hvcurveto
          17 -11 rlineto
          115 -78 98 -76 -120 vvcurveto
          -103 -90 -59 -102 vhcurveto
          endchar
        </CharString>
        <CharString name="eight.sups">
          -500 874 41 820 116 callgsubr
          448 1381 -59 callgsubr
        </CharString>
        <CharString name="ellipsis">
          413 -29 262 hstemhm
          127 262 313 262 312 262 269 callsubr
          258 233 rmoveto
          -73 callgsubr
          575 hmoveto
          -73 callgsubr
          574 hmoveto
          107 callgsubr
        </CharString>
        <CharString name="emacron">
          59 callsubr
          324 51 119 callgsubr
          868 181 callsubr
          678 -1145 rmoveto
          86 callsubr
          -102 callgsubr
        </CharString>
        <CharString name="emacron.smcp">
          50 callgsubr
          285 51 -19 callsubr
          hintmask 11101100
          968 157 callgsubr
          847 -1288 rmoveto
          57 2 98 callsubr
          -23 -72 -86 -200 hhcurveto
          -150 hlineto
          -107 callsubr
          hintmask 11011100
          -95 callgsubr
          hintmask 11101100
          80 callgsubr
          endchar
        </CharString>
        <CharString name="emdash">
          513 510 82 hstem
          121 1524 vstem
          1645 510 283 callsubr
        </CharString>
        <CharString name="emdash.case">
          522 684 82 hstem
          125 1524 vstem
          1649 684 283 callsubr
        </CharString>
        <CharString name="emdash.smcp">
          546 586 82 hstem
          137 1524 vstem
          1661 586 283 callsubr
        </CharString>
        <CharString name="endash">
          -83 510 82 hstem
          121 928 vstem
          1049 510 260 callsubr
        </CharString>
        <CharString name="endash.case">
          -74 684 82 hstem
          125 928 vstem
          1053 684 260 callsubr
        </CharString>
        <CharString name="endash.smcp">
          -50 586 82 hstem
          137 928 vstem
          1065 586 260 callsubr
        </CharString>
</ttFont>
